<svg id="Layer_1" data-name="Layer 1" xmlns="http://www.w3.org/2000/svg" viewBox="0 0 300 300"><defs><style>.cls-1{fill:#ffc72b;}.cls-2{fill:#f28900;}.cls-3{fill:#57585a;}.cls-4{fill:#c4c4c4;}.cls-5{fill:#010101;}.cls-6{fill:#fff;}</style></defs><title>Fuse_Icons</title><rect class="cls-1" x="80.09" y="64.02" width="125.21" height="187.61"/><rect class="cls-2" x="205.3" y="64.02" width="12.06" height="187.61"/><rect class="cls-3" x="92.78" y="80.24" width="99.84" height="24.96"/><rect class="cls-4" x="92.78" y="80.24" width="5.2" height="24.96"/><rect class="cls-5" x="92.57" y="121.84" width="99.84" height="4.99"/><rect class="cls-6" x="92.78" y="139.41" width="17.26" height="17.26"/><rect class="cls-6" x="120.03" y="139.41" width="17.26" height="17.26"/><rect class="cls-6" x="147.27" y="139.41" width="17.26" height="17.26"/><rect class="cls-6" x="174.52" y="139.41" width="17.26" height="17.26"/><rect class="cls-6" x="92.78" y="166.66" width="17.26" height="17.26"/><rect class="cls-6" x="120.03" y="166.66" width="17.26" height="17.26"/><rect class="cls-6" x="147.27" y="166.66" width="17.26" height="17.26"/><rect class="cls-6" x="174.52" y="166.66" width="17.26" height="17.26"/><rect class="cls-6" x="92.78" y="193.91" width="17.26" height="17.26"/><rect class="cls-6" x="120.03" y="193.91" width="17.26" height="17.26"/><rect class="cls-6" x="147.27" y="193.91" width="17.26" height="17.26"/><rect class="cls-6" x="174.52" y="193.91" width="17.26" height="17.26"/><rect class="cls-6" x="92.78" y="221.15" width="17.26" height="17.26"/><rect class="cls-6" x="120.03" y="221.15" width="17.26" height="17.26"/><rect class="cls-6" x="147.27" y="221.15" width="17.26" height="17.26"/><rect class="cls-6" x="174.52" y="221.15" width="17.26" height="17.26"/><rect class="cls-5" x="77.55" y="282.13" width="26.47" height="3.85" transform="translate(-174.27 147.39) rotate(-45)"/><rect class="cls-5" x="88.86" y="270.82" width="3.85" height="26.47" transform="translate(-174.27 147.39) rotate(-45)"/><rect class="cls-2" x="196.67" y="277.06" width="19.24" height="3.85"/><rect class="cls-2" x="196.67" y="286.68" width="19.24" height="3.85"/><rect class="cls-5" x="119.45" y="282.13" width="19.24" height="3.85"/><rect class="cls-5" x="165.63" y="274.43" width="3.85" height="19.24"/><rect class="cls-5" x="157.93" y="282.13" width="19.24" height="3.85"/><rect class="cls-4" x="213.41" y="34.72" width="4.99" height="9.05"/><rect class="cls-4" x="200.93" y="18.8" width="4.99" height="24.96"/><rect class="cls-4" x="188.45" y="31.28" width="4.99" height="12.48"/><rect class="cls-4" x="175.97" y="18.8" width="4.99" height="24.96"/><rect class="cls-4" x="163.49" y="31.28" width="4.99" height="12.48"/><rect class="cls-4" x="151.02" y="18.8" width="4.99" height="24.96"/><rect class="cls-4" x="138.54" y="6.32" width="4.99" height="37.44"/><rect class="cls-2" x="126.06" y="31.28" width="4.99" height="12.48"/><rect class="cls-2" x="113.58" y="18.8" width="4.99" height="24.96"/><rect class="cls-2" x="101.1" y="32.53" width="4.99" height="11.23"/><rect class="cls-2" x="88.62" y="28.16" width="4.99" height="15.6"/><rect class="cls-2" x="76.14" y="34.72" width="4.99" height="9.05"/></svg>
