<svg id="Layer_1" data-name="Layer 1" xmlns="http://www.w3.org/2000/svg" viewBox="0 0 1031.95 938.3" preserveAspectRatio="XMinYMin meet">
  <defs>
    <style>
      .cls-2{fill:#aeafb1}.cls-2,.cls-3,.cls-4,.cls-5,.cls-6{stroke:#e1e1e2;stroke-linejoin:round}.cls-3{fill:#76777a}.cls-4{fill:#949698}.cls-5{fill:#636365}.cls-6{fill:#c0c0c2}.cls-7{fill:#fff}
    </style>
  </defs>

  <path id="austin-isd" class="cls-2" d="M544.34 727.81l-3.63-2.23 2-2.55 21.71-37.95 8.48-9.08-.63-6.54 1.89-4-1.89-3.38.42-4 3.58-3 .84-7.59s1.48-3.79 2.11-3.79 4.85-.63 4.85-.63l.42-11.39h-1.68l-1.9 4.22-4.22.21-.63-4-5.06-.84 2.74-7 3.8.42 3.58-7.8-8.43-6.11L582.6 594l6.95-12.65a16.84 16.84 0 0 1-.63-3.16 10.14 10.14 0 0 1 .42-3.79s13.5-1.27 13.71-.43 5.06 4.43 6.32 5.28-.42 3-.42 3a38.89 38.89 0 0 1-4.85.42 3.87 3.87 0 0 1-3.16-1.9s-3.59.84-4.22 1.69-.84 12-.84 12l2.74 3.16s0 6.32.21 8 3.16.63 4.64 0 1.26-4.22 1.26-4.22 2.11-1.89 3.38-2.11 5.27-7.59 5.9-9.06S614 579 614 579l4.43-1s8.43-1.48 9.7-2.32a6.13 6.13 0 0 0 1.89-2.82s.42-3.71 1.27-4.56 6.53-5.06 6.53-5.06l6.75-2.74s11-1.69 13.28-1.9l-11.7-2.84.21-3 5.27-8.12.53-5s.11-10.85.11-11.17 1.47-1.9 1.47-1.9 0-5.9.42-6.32 4.54 1.47 5 1.68.84 3.69 1.9 4.33 4.53-.42 5.06-.32 5.06 2.85 5.9 2.64 4.43-7.91 4.43-7.91-10.12-6.85-10-6.85 2.43-2.11 2.43-2.11 2.74-7.27 3.47-9.17-.84-4.75-2.31-5.69a9.54 9.54 0 0 1-3.17-5.06c-.1-1.16 9.6-4.12 9.6-4.12s-10.23.74-14 1.06a12 12 0 0 1-7.07-2 25.19 25.19 0 0 0-2.63-3.38c-.63-.42-.53-3.05-.53-4.64s-2.11-1.68-2.11-1.68-3.27 4.74-3.37 5.37-.84 6.86-.84 7.17-2.64.42-2.64.42-6.43.32-7.06.32-6.75 3.27-6.75 3.27-3.69.63-4.43.1.42-2.53.42-2.53l-.21-8.43-2.42 1.79-3.58.74a13.06 13.06 0 0 1 1.58-6.11c1.58-2.43 6.32-4.85 6.32-4.85v-9.28s5.27-6.85 6.43-9.59 1.48-7.91 1.9-10.23 5.8-5.37 5.8-5.37l-2.53-2.22-.64-4.43-2.21-5.79a9.33 9.33 0 0 0-5.69-.74c-3.48.53-3.37-.53-3.37-.53s.52-5.48-1.27-6.11-3.9 1.16-4.74 2.95-2.53 10.65-3.8 11.17-2.53-.52-3-.63-1.69-3.37-3.16-4.43-2.85 3.06-2.85 3.06L595.67 426l5.06-9.38 4.74 1.79L617 401.09s-10.12-5.69-10.22-6.22 5.06-7.27 5.16-8.32 1.9-3.9 1.79-5-6.85-4.74-6.85-4.74h-19.33a8.18 8.18 0 0 1-4.22-2.61 4.24 4.24 0 0 0-4.42-1v9.07l-2.53-.84c-1.27-.43-1.9 1.47-4.54.84s-4.85-3.27-5.16-3.27-7.38 13.18-7.38 13.18l-7.8-4.53s-6.33 9.27-7.38 12.54a15.12 15.12 0 0 0 0 7.27l-4.74 8.54-9.28-6-5.59 9.17-11-6-2.43 4.85a25.93 25.93 0 0 0-3.05 2.31c-.95.95-2.43 7.7-2.43 7.7h-8.43l-.59 20.97-9.28-.53s-2.42 8.33-3.06 11.71S474 479.42 474 479.42s-1.69 11.38 2.21 14.44 11.49-1.06 11.49-1.06c1.79-1.26 6.85-9.9 7.59-11.06s10.71-14.24 12.57-15.92 4.32-1.16 6.53-.63 9.17 7.06 11.81 10.12 7.59 14.65 9.38 19.92-.42 13.18-2.21 18a54.28 54.28 0 0 1-4.75 9.38 38.71 38.71 0 0 0-6.22.63c-2.1.53-4.42 5.9-4.42 5.9s3.48 7.49 4.21 9.28 10.44 7.38 11.6 8.43.74 8.23.74 8.23l-6.53 4.66s-2 6.12-3.06 7.07-7.27 3.16-7.27 3.16l.63 4.85s4.43-.21 5.59 1.68-1 4.75-2 4.64-3.9-1.89-3.9-1.89a37.93 37.93 0 0 0-4.75-.74c-1.26 0-3.58 2.42-3.58 2.42l-1.27 1.69-3.47.74-1.16-4.85s-.74-4.75-1.69-6.43a11.47 11.47 0 0 0-3.27-3.17l-6.22-6-.1-10.23-4.54-.32a17.15 17.15 0 0 1-3.16-3.58c-.95-1.69-3.69-3.06-6.53-2.64s-6.12.32-8-1 .21-10.22.21-10.65-3.26-6.64-3.58-11.28a23.94 23.94 0 0 0-1.58-7.37c-.21-.85-2.32-.95-3.69-.22s-2.43 7.59-2.43 7.59-2.84.32-3.47-.94-1.37-7.81-1.37-7.81a4.22 4.22 0 0 0-3.17-.52c-1.47.52-.42 8.11-.42 8.11s-3.58.11-6.32.11-4 2-4.75 3.06.64 5.9.42 8.33-2.63.84-3.26.52-2-3.58-3.27-5.69-2.64-2.53-3.69-2.32-3.48 4.74-6.43 5.27-3.27-3.06-3.27-3.06l4.11-5.69-11.94-10.48-4.43-2-3.58 4.43 1.37 2.74 1.69 7.38-2.32 2.35a13.3 13.3 0 0 1-4.33-1.16c-1.79-.95-1.47-2.74-2.31-3.27s-1.59.63-1.48 2.43 1.48 4 3.48 4 5.16.85 5.59 2.64 0 7.69-1.06 7.9-1.58-.73-1.69-3-.84-3.27-1.37-3.48-1.37-.31-2.63 1.27-1.48 6.85-2.21 7.27-2.11-1.37-3.59-1.37-3.48 3.8-4.74 3.37-2.64-2.31-4.11-1.68-.64 3.69-1.59 4.43-4.32-1.06-4.32-1.06-5-.21-8.32 0-3.17 4.14-3.17 4.14a36.19 36.19 0 0 1-4.74 1c-1.9.21-1.58 5.69-2.74 6a4.41 4.41 0 0 1-3.16-.22c-.64-.42-2.22-5.27-3.06-5.48s-2.11 1.27-2.53 2.53-2 3.27-3.06 3.27-1.47-3.48-1.47-4.11-.22-3-2.58-3-1.64 4.72-1.64 4.72H337c-2.22 0-2.43.63-2.53 1.05s2.21 4.53 1.79 5.27-3.06 0-3.06 0l-.84 6a23.71 23.71 0 0 1-3.9.42c-1.79 0-1.58 5.17-1.58 5.17s-1.9-.11-3.9 0-3.27 2.21-3.27 2.21l4.43 4.74-5.48.74 1.89 4.75L504.27 737l-.95-27.62 17.29 9.7 7.59-.21 1.48-2.53s4-6.54 5.48-6.75 2.74 2.53 2.74 2.53l-5.69 8.43z"/>
  <path id="del-valle" class="cls-3" d="M769.34 552.89l7.59-13.7s-7.38-5.91-10.75-7-8-1.48-10.12-2.53-29.3-15.81-29.3-15.81-1.69 8.22-2.75 10.75-6.11 11.4-6.11 11.4l-2.32-2.95-9.28-.42s-.42 5.69-1.47 5.69-5.06-3.79-5.06-3.79l-8.43.84-17.29 31.23s-1.9 1-7 1.26a29.78 29.78 0 0 1-7.59-.42s.84-9.07-1.48-8.86-13.28 1.9-13.28 1.9l-6.7 2.74s-5.7 4.22-6.54 5.06-1.27 4.56-1.27 4.56a6.13 6.13 0 0 1-1.89 2.82c-1.27.84-9.7 2.32-9.7 2.32l-4.43 1s.63 9.7 0 11.18-4.64 8.85-5.9 9.06-3.37 2.11-3.37 2.11.21 3.59-1.27 4.22-4.43 1.69-4.64 0-.21-8-.21-8l-2.78-3.12s.21-11.18.84-12 4.22-1.69 4.22-1.69a3.87 3.87 0 0 0 3.16 1.9 38.89 38.89 0 0 0 4.85-.42s1.69-2.11.42-3-6.11-4.43-6.32-5.28-13.71.43-13.71.43a10.14 10.14 0 0 0-.42 3.79 16.31 16.31 0 0 0 .64 3.16l-7 12.65-9.91 16.87 8.43 6.11-3.58 7.8-3.8-.42-2.74 7 5.06.84.63 4 4.22-.21 1.9-4.22h1.69l-.43 11.39s-4.21.63-4.85.63-2.1 3.79-2.1 3.79l-.85 7.59-3.58 3-.42 4 1.89 3.38-1.89 4 .63 6.54-8.43 9.06L542.91 723l-2 2.55 3.64 2.23 7.68 4.71-7.8 15 17.07 10.75-8.64 16.45 42.38 38.58 52.7-50.81 4 4.21L673 743.9l3.17-.84L728 690.77s5.06-6.95 6.33-7.16a29.64 29.64 0 0 1 4.42 0l10.12-18.56h2.74s5.06-7.16 8.23-8.85 18.55-17.08 19.18-19.82a76.62 76.62 0 0 1 3.16-8.64h6.12s4.21-8.23 7-10.12a14.52 14.52 0 0 0 4.21-4.85l19-33.31z"/>
  <path id="manor" class="cls-4" d="M812.93 361.86l5.54-8.54 1.73-9.08s-4.42-2-6.32-2.94-7.59-2.84-7.59-2.84l-5.38.31-1.91-5.37-10.75-1.9-2.21-4.11-7.9-4.39s-7.59 5.69-9.17 6.32-2.53 5.06-2.53 5.06L748.73 329s-2.21 5.37-4.11 4.74-2.21-4.11-2.53-7.59-1.58-7.27-3.16-8.54-7.91-1.89-10.12-1.89 0-3.8 0-3.8-2.85-1.26-3.16-3.48-3.17-3.3-3.17-3.3-8.85 3-12.65 3.93-3.48-3.79-3.48-3.79a53.52 53.52 0 0 0-8.22 0c-5.37.32-8.22 12-8.22 12h-13.49l-4.85 1.89-20.57 2.52-26.56 45.54h-2.53l-5.26 13.6-3 1.33c-.33 1.28-1.63 3.47-1.72 4.37-.1 1.05-5.27 7.8-5.16 8.32s10.23 6.22 10.23 6.22l-11.49 17.29-4.74-1.79-5.1 9.43 12.33 6.17s1.37-4.11 2.85-3.06 2.74 4.33 3.16 4.43 1.69 1.16 3 .63 2.95-9.38 3.8-11.17 3-3.59 4.74-2.95 1.27 6.11 1.27 6.11-.11 1.06 3.37.53a9.33 9.33 0 0 1 5.69.74l2.21 5.79.64 4.43 2.53 2.22a21.93 21.93 0 0 0 4.74-2.75c2.53-1.89 6.64-9.48 6.64-9.48l7.59 4.62 1.58-7.79c2.22 0 6.64 7.79 6.64 7.79l6.33-8.73s9.17 4.74 14.55 7.27 4.74 1.26 6.32 0 7.59-12.65 7.59-12.65l3.8-.32 3.16-7.59 7 2.85 2.21-2.21 5.06 2.53 2.21-1.58 13.92 7.9a37.1 37.1 0 0 1 .63 6.33c0 3.16 3.16 2.84 4.11 2.53s3.16-5.7 3.16-5.7 4.12 2.53 6 2.22-.63-4.11-.63-4.11l.63-3.8 7.5 3.8 1.58-2.85-6.58-3.48 1.9-4.74 12.33 4.74 3.48-6.32s-.63-3.8-.31-4.75 3.48.64 6.64 1.58 8.85 3.17 8.85 3.17l8.86-15.18-5.11-3.17 6-11.06 4.11 1.89 3.48-6.61 9.48 6 6.65-11.07z"/>
  <path id="pfluggerville" class="cls-5" d="M641.63 439.87a21.93 21.93 0 0 0 4.74-2.75c2.53-1.89 6.64-9.48 6.64-9.48l7.59 4.62 1.58-7.79c2.22 0 6.65 7.79 6.65 7.79l6.32-8.73s9.17 4.74 14.55 7.27 4.74 1.26 6.32 0 7.59-12.65 7.59-12.65l3.8-.32 3.16-7.59 7 2.85 2.21-2.21 5.06 2.53 2.22-1.58 13.91 7.9a37.1 37.1 0 0 1 .63 6.33c0 3.16 3.17 2.84 4.11 2.53s3.17-5.7 3.17-5.7 4.11 2.53 6 2.22-.64-4.11-.64-4.11l.64-3.8 7.59 3.8 1.58-2.85-6.64-3.48 1.89-4.74 12.34 4.74 3.47-6.32s-.63-3.8-.31-4.75 3.48.64 6.64 1.58 8.85 3.17 8.85 3.17h.09l.5.81 8 4.25-9.49 18.34v2.53L783.71 446l7 3.48-.95 3.21 32.57 20.19-7.63 13.92 4.27 9.48s11.54 1.27 18.18 1.58 5.7 4.43 5.7 4.43l-7.59 6s-1.58 7.91-1 12 4.16 12.71 4.16 12.71l-23.7 44.19-.82-.45-44.14-23.82 7.59-13.7s-7.37-5.91-10.75-7-8-1.48-10.12-2.53-29.3-15.81-29.3-15.81-1.69 8.22-2.74 10.75-6.12 11.37-6.12 11.37l-2.32-2.93-9.27-.42s-.43 5.69-1.48 5.69-5.06-3.79-5.06-3.79l-8.43.84-17.29 31.21s-1.9 1-7 1.26a29.78 29.78 0 0 1-7.59-.42s.85-9.07-1.47-8.86h-.17l-11.7-2.84.21-3 5.28-8.12.52-5s.11-10.85.11-11.17 1.47-1.9 1.47-1.9 0-5.9.43-6.32 4.53 1.47 4.95 1.68.84 3.69 1.9 4.33 4.53-.42 5.06-.32 5.06 2.85 5.9 2.64 4.43-7.91 4.43-7.91-10.12-6.85-10-6.85 2.43-2.11 2.43-2.11 2.74-7.27 3.48-9.17-.85-4.75-2.32-5.69a9.54 9.54 0 0 1-3.17-5.06c-.1-1.16 9.6-4.12 9.6-4.12s-10.23.74-14 1.06a12 12 0 0 1-7.07-2 25.19 25.19 0 0 0-2.63-3.38c-.63-.42-.53-3.05-.53-4.64s-2.11-1.68-2.11-1.68a55.2 55.2 0 0 0-3.37 5.37c-.1.64-.84 6.86-.84 7.17s-2.64.42-2.64.42-6.43.32-7.06.32-6.75 3.27-6.75 3.27-3.69.63-4.43.1.43-2.53.43-2.53l-.21-8.43-2.43 1.79-3.58.74a13.06 13.06 0 0 1 1.58-6.11c1.58-2.43 6.32-4.85 6.32-4.85v-9.28s5.27-6.85 6.43-9.59 1.48-7.91 1.9-10.23 5.8-5.37 5.8-5.37"/>
  <path id="dripping-springs-isd" class="cls-6" d="M124.46 708.7s3.16-1.06 3.27-2.22-1.27-2.84-2-3.9a2.71 2.71 0 0 1 .52-4c1.69-1.16 12.65-4.64 14.23-4.64s5.06-.32 5.06-.32l-.31-7.48 3.69-.21-.21-24.36a9.26 9.26 0 0 1 3.48-1.68c1.37-.11 6.53-.42 6.53-.42l-.1-5s-6.43-1.58-7.91-2.74S147 649 147 646.08s4-6.43 4-6.43.73-3.69-.22-3.9-2.63.84-2.63.84l-1.9 1.58-.42-25.82-26.14-2.75 52.1-151.6 10.33-17.92h8.44l6.95 7.8 6.12-8.86 9.06 1.48 7-1.48 1.06 15.82s1.68 2.95 3.58 1.68a34.53 34.53 0 0 0 4.22-3.58l12 8.64-8.64 6.75 2.74 14.12-20.24 13.08 104.15 84.22 1.9 4.75 75 62.2v27.82h-10.52s-.42 9.91-1.9 9.07-2.53-4.22-2.53-4.22l-9.06.42-.45 19.63a9.6 9.6 0 0 1-5.69 3.79 41.22 41.22 0 0 1-9.28 0l-6.33-3.79h-33.1v-12.23l-3.37-2.11-8.86.85-.21 5.48-4.16-.21.63 19.18s-4.64 1.9-5.69 0-.21-6.53-3.38-6.11-2.53 2.53-5.69 3a13 13 0 0 1-6.32-1.05s-3.8-1.9-5.91-.64-5.48 5.7-5.48 5.7h-13.3l-.42 7.59s5.48.63 5.9 1.68.21 7 .21 7h17.92l.31 14.85-17.54.12v15.39h-57.35l-1.69-6.12-13.28-3.58v-6.53l-12-1.27v-11.9l-11.59-11.17-1.05 3.58-4.85 3-3.43-2.36-4 4.21-2.32-2.11-3.38 1.06-5.24-5.72v-4.4l-3.79-2.11-3.8 3-8.46-3z"/>
  <path id="hays-cisd" class="cls-5" d="M586 824.44l9.7-6.19-.26-5-1.68-1.4-40.84-37.18 8.64-16.45-17.08-10.75 7.81-15-7.68-4.71-3.64-2.23h-.17l-.13-.08-8.36-5 5.69-8.43s-1.27-2.74-2.74-2.53-5.48 6.75-5.48 6.75l-1.48 2.53-7.59.21-17.29-9.7.94 27.45-108.89-90.01v27.82H385s-.42 9.91-1.9 9.07-2.53-4.22-2.53-4.22l-9.06.42-.42 19.61a9.6 9.6 0 0 1-5.7 3.79 41.14 41.14 0 0 1-9.27 0l-6.33-3.79H316.7v-12.23l-3.37-2.11-8.86.85-.21 5.48-4.21-.21.63 19.18s-4.64 1.9-5.69 0-.22-6.53-3.38-6.11-2.53 2.53-5.69 3a13 13 0 0 1-6.32-1.05s-3.8-1.9-5.91-.64-5.48 5.7-5.48 5.7h-13.28l-.42 7.59s5.48.63 5.9 1.68.21 7 .21 7h17.92l.31 14.54v.31l14.39-.09v14.54l33.73-.42s4.13 4.64 3.75 7 4.89 6.11 4.89 6.11l4.22 6.33v12.65h-14.54l-3.79 2.32.42 41.46s4.43 4.08 4.85 4.92-.42 3.37-.42 3.37l-1.69 1.06-.21 12.65-2.53 3.16s-.21 4.43 1.69 6.75a76.66 76.66 0 0 1 5.06 8.82l5.36-5.66 3.16 2.21h3.48l29.1 28.78 13.6-14.54 10.75 10.12 21.82-24.36 3.16 2.85s-4.11 4.43-4.43 5.06 1.9 7 5.06 11.7-2.84 9.49-2.84 9.49 2.84 2.53 4.74 4.43 6.64 4.42 7 7.59-6 5.69-6 5.69l14.86 14.86.32.32.33-.32 16.12-15.49 14.29 14.29 36.09-23.25 20.66 22.77 21.51-19.82 10 9.7 14.61-2.53-5.42-33.45s-4.92-8.85-7.45-13.49-1.69-21.08-1.69-21.08z"/>
  <path id="liberty-hill-isd" class="cls-2" d="M283.85 174.34l69.89-151.48 8.85-2.21 2.85 6 7.59-1.9 2.53 8.54 7.59-2.21-1.9-8.54 10.44-1.9s2.21-6.33 4.11-4.43 5.38 1.58 5.38 1.58l13.59-4.42 6 18.34L439.44 26v10.15l11.39 28.77 7.59-2.84 3.79 8.85 12.65-4.74 2.22 4.11 8.22-2.21V64l9.8-4.11 3.48 9.49-23.4 8.54-.32 10.75 6.33 13.28-.95 8.54-3.8 5.06 2.56 15.79 23.72-7.91 10.75 28.78 40.48-12.65 4.43 14.86-25.96 8.58 3.79 11.38s-2.21 5.17-6 7.49a31 31 0 0 1-9.21 3.23h-5.37l-3.48 3.16-3.8-7.91-3.47 1.48v6.43s-3.8-1.9-9.49 0-8.54.63-11.07 0-5.06-4.11-5.06-4.11l-15.5-7.28 26.88-9.17s.32-3.79-3.79-6.95-10.75-10.12-17.39-9.81-14.87 5.69-14.87 5.69-13.28-4.74-16.13-2.84a7.52 7.52 0 0 0-3.16 5.06l1.58 2.53.32 10.75s10.43 2.85 12.33 6-15.18 7.27-15.18 7.27l-21.5 6.33-2.53-2.22-5.32 2.23-15.49-1.9-20.24-19.92-10.44 6.32s-7-.31-7.91 0S337 190.47 336 190.16s-12.33-19.61-12.33-19.61l-6 11.28s-9.17 1-11.07 1.37-3.48 3.48-7.91 2.21-5.37-6-5.37-6z"/>
  <path id="lago-vista-isd" class="cls-4" d="M384.1 372.49c8.85-2 21.5 5.83 21.5 5.83s-5.9-20.24-7.16-26.56S412.35 340 412.35 340s-4.64-8-6.75-11a37.52 37.52 0 0 1-3.79-8h-18.55l-43.59-24.46 6.48-13.07-9.7-5.9-6.13-3.45-.09.18-13.49 52.18c4.82 2.93 8.75 6.6 10.43 10.54 2.53 5.9 3.38 18.13.43 19.4s-13.08 6.11-13.08 6.11-15.17 13.28-17.28 23.4 6.32 10.54 6.32 10.54l20.66 2.11s18.56 2.11 19.57 4.75-3.12 9.59-6.07 10.43-12.23 8.86-17.29 14.34-9.7 12.23-5.06 14.34 19.82-1.69 24.3-3.38 14.07-16.86 16.6-19 14.76.42 21.5 0 9.28-2.95 10.12-6.33-2.95-8.43-6.32-12.23-9.28-11.8-10.12-15.6 3.79-11.37 12.65-13.41z"/>
  <path id="leander-isd" class="cls-6" d="M535.53 172.13l.74 2.21s-2.22 5.17-6 7.49a31.06 31.06 0 0 1-9.17 3.27h-5.38l-3.48 3.16-3.79-7.91-3.45 1.48v6.43s-3.8-1.9-9.49 0-8.54.63-11.07 0-5.06-4.11-5.06-4.11l-15.49-7.28 26.88-9.17s.31-3.79-3.8-6.95-10.75-10.12-17.39-9.81-14.86 5.69-14.86 5.69-13.29-4.74-16.13-2.84a7.47 7.47 0 0 0-3.16 5.06l1.58 2.53.31 10.75s10.44 2.85 12.34 6-15.18 7.27-15.18 7.27l-21.51 6.33-2.53-2.22-5.44 2.23-15.5-1.9-20.24-19.92-10.44 6.32s-7-.31-7.9 0-13.92 14.23-14.84 13.92-12.33-19.61-12.33-19.61l-6 11.28s-9.17 1-11.07 1.37-3.48 3.48-7.9 2.21-5.38-6-5.38-6l-9.45-5-12.82 28.53.77-.08-8.33 16.91-1.74 4.48 14.81 8.33 4.11-2.21 37.95 21.19-6.64 11.7 18.26 11 .06-.13 6.14 3.45 9.69 5.9-6.48 13.07L383.31 321h18.55a37.24 37.24 0 0 0 3.8 8c2.11 2.95 6.74 11 6.74 11s-15.17 5.48-13.91 11.81c1.24 6.17 6.89 25.6 7.16 26.52h.07l.38.25 1.2 3.07 13.44 24.67 1.26 12-12.49 8.22s1.11 25.93.95 27.2.32 6.17-3.16 9.17-15 16.6-15 16.6-2.69 4.11 0 7.91 8.69 5.37 11.7 5.06 19.13-14.23 19.13-14.23a43.07 43.07 0 0 1 13.13-4.11c6.79-.79 16.76-8.23 18.65-9.33s6.65-4.27 10.28-1.9 5.54 6.64 7 9.8a36.71 36.71 0 0 1 2 6.62c.69-1.15 9.57-16 10.18-19.21s3.06-11.71 3.06-11.71l9.27.53.63-20.87h8.44s1.47-6.75 2.42-7.7a25.74 25.74 0 0 1 3.06-2.31l2.42-4.85.08-.14.09-.18s-8.49-5.17-9.76-5.8 7.27-11.7 7.27-11.7l-26.56-15.5 9.49-15.18-3.8-2.21s.63-8.22 3.8-12 10.72-4.43 10.72-4.43l-7.38-20.88 55.13-20.08-7.9-21.34-.95-6s13 .95 18 0 7.59-7 7.59-7l-27.83-83.17z"/>
  <path id="round-rock-isd" class="cls-5" d="M569.45 270.8s-2.53 6-7.59 7-18 0-18 0l.95 6 7.91 21.34-55.14 20.08 7.38 20.88s-7.59.63-10.75 4.42-3.79 12-3.79 12l3.79 2.21-9.49 15.18 26.57 15.5s-8.54 11.07-7.28 11.7 9.76 5.8 9.76 5.8l-.09.18-.07.14 10.93 6 5.58-9.17 9.28 6 4.74-8.54a15.12 15.12 0 0 1 0-7.27c1.06-3.27 7.38-12.54 7.38-12.54l7.8 4.53s7.07-13.18 7.38-13.18 2.53 2.64 5.17 3.27 3.26-1.27 4.53-.84l2.53.84v-9.07a4.26 4.26 0 0 1 4.43 1 8.17 8.17 0 0 0 4.21 2.61h19.29s6.75 3.69 6.86 4.74a2 2 0 0 1-.07.56l3-1.32 5.26-13.6h2.53L651 321.69l20.56-2.53 4.85-1.89h13.49s2.85-11.7 8.22-12a53.69 53.69 0 0 1 8.23 0h.31v-19h-12.35v-10.73l-10.12-1.44-1-22.91 4.43-1.58.63-3.16h6l-17.92-45.22-39 14.86v4.74l-15.18 7.28a34.14 34.14 0 0 1-7-1.27c-5.06-1.26-15.5 2.85-15.5 2.85l-1.9-2.85-25.93 9.81-12.51 4.16z"/>
  <path id="georgetown-isd" class="cls-3" d="M536.3 174.34l-.74-2.21 6.12 15.5 17.79 53.18 12.53-4.16 25.94-9.81 1.89 2.85s10.44-4.11 15.5-2.85a34.14 34.14 0 0 0 7 1.27l15.18-7.28v-4.74l39-14.86 7.34 18.77 4.19-3.87 7-5.06 3.8 3.16 4.11-1.58-1.9-6.32 18.66-8.23s-8.86-28.46-10.12-29.41 13.28-.63 13.28-.63l3.16-5.69 6.33-.32s12.33 0 19 .63 15.11 6.32 15.11 6.32l11.07-3.8s11.39 5.38 12.33 5.38 5.7 1.58 7 1.58a45.11 45.11 0 0 0 12.34-1.9c7-1.89 7.27-4.11 7.27-4.11s-10.44-31-11.7-33.2-7-2.22-7-2.22l-12.65 4.11-3.48-10.12-17.39-7.27v-7l-2.53-.63-3.48 4.74-10.62-3.47-2.35-5.7L744 93.7l12.65-4.11 1.58-4.11 1-11.07 2.53-12.65-14.1-6.64 1.76-10.44-6-2.53v-5.71l-7 2.87-4.11-10.12-5.77-15.81L689.45 26l11 25.93-39.26 15.21-1.68-5.27s-3.17-5.91-6.33-5.06-4.64 9.27-4.64 9.27L642 69.25v5.27l-23.19 7.8L612.7 72l-12 4-9.7 3.58L581.08 52H575c-3-1.06-2.53-5.48-2.53-5.48s3.17-4.43 3.38-6.33c.13-1.19-1.26-2.35-2.31-3a8.54 8.54 0 0 1 1.68-.27 8.28 8.28 0 0 0-1.93.3l-12-8.26-7.91-6.64-4.41-2.85-1.6-2.53-8.54 3.48-7.9-6.95-4.43 1.89-9.5-7.04-25.66 9.48 5.06 14.87-8.86 3.16 7.59 24 3.48 9.49-23.4 8.54-.32 10.75 6.33 13.28-1 8.54-3.8 5.06 2.58 15.85 23.72-7.91 10.76 28.78L554 139.56l4.43 14.86-25.98 8.58 3.79 11.38"/>
  <path id="hutto-isd" class="cls-2" d="M694.31 246.45h-6l-.63 3.16-4.43 1.58 1 22.91 10.12 1.44v10.76h12.33v19h-.29s-.3 4.74 3.48 3.79 12.65-3.93 12.65-3.93 2.85 1.09 3.17 3.3 3.16 3.48 3.16 3.48-2.22 3.8 0 3.8 8.54.63 10.12 1.89 2.84 5.06 3.16 8.54.63 7 2.53 7.59 4.11-4.74 4.11-4.74l17.71 5.37s.95-4.42 2.53-5.06 9.17-6.32 9.17-6.32l7.91 4.43 2.21 4.11 10.68 1.76 1-5.16h5.91v-3.8l-2.53-4.22 3.79-19.81h4.64l2.53-15.61-11.81-.84v5.06h-4.64L805 251l-12.65-31.62 20.24-7.59L798 172.11h-1.14c-1.26 0-6-1.58-7-1.58s-12.33-5.38-12.33-5.38L766.47 169s-8.54-5.69-15.18-6.33-19-.63-19-.63l-6.33.32-3.13 5.64s-14.55-.32-13.28.63 10.12 29.41 10.12 29.41L701 206.29l1.9 6.32-4.11 1.58L695 211l-7 5.06-4.15 3.94z"/>
  <path class="cls-7" style="pointer-events:none;" d="M406.2 807.23v-8.59h1.73V802h3.4v-3.38h1.73v8.59h-1.73v-3.76h-3.4v3.76zm17.12 0h-1.88l-.75-2h-3.44l-.71 2h-1.84l3.35-8.59h1.83zm-3.19-3.4l-1.13-3.19-1.16 3.19zm5.99 3.4v-3.62l-3.15-5h2l2 3.4 2-3.4h2l-3.15 5v3.6zm6.03-2.79l1.68-.17a2.12 2.12 0 0 0 .62 1.25 2.28 2.28 0 0 0 2.52 0 1 1 0 0 0 .43-.83.76.76 0 0 0-.18-.51 1.42 1.42 0 0 0-.63-.38c-.2-.07-.66-.19-1.38-.37a4.77 4.77 0 0 1-2-.85 2.22 2.22 0 0 1-.79-1.73 2.19 2.19 0 0 1 .37-1.23 2.33 2.33 0 0 1 1.07-.87 4.29 4.29 0 0 1 1.69-.3 3.66 3.66 0 0 1 2.44.71 2.56 2.56 0 0 1 .86 1.9l-1.74.07a1.42 1.42 0 0 0-.48-.95 1.76 1.76 0 0 0-1.1-.29 2 2 0 0 0-1.18.31.62.62 0 0 0-.27.53.64.64 0 0 0 .25.52 4.42 4.42 0 0 0 1.6.58 8.22 8.22 0 0 1 1.87.62 2.42 2.42 0 0 1 1 .87 2.71 2.71 0 0 1-.07 2.75 2.45 2.45 0 0 1-1.16 1 4.84 4.84 0 0 1-1.87.31 3.73 3.73 0 0 1-2.5-.75 3.25 3.25 0 0 1-1.05-2.19zm18.71-.37l1.68.54a3.76 3.76 0 0 1-1.28 2.08 3.65 3.65 0 0 1-2.29.69 3.7 3.7 0 0 1-2.81-1.17 4.5 4.5 0 0 1-1.1-3.2 4.68 4.68 0 0 1 1.11-3.33 3.81 3.81 0 0 1 2.91-1.19 3.55 3.55 0 0 1 2.56.94 3.38 3.38 0 0 1 .88 1.58l-1.72.41a1.82 1.82 0 0 0-.63-1.06A1.89 1.89 0 0 0 449 800a1.94 1.94 0 0 0-1.55.68 3.35 3.35 0 0 0-.59 2.22 3.6 3.6 0 0 0 .58 2.32 1.91 1.91 0 0 0 1.53.69 1.72 1.72 0 0 0 1.19-.44 2.51 2.51 0 0 0 .7-1.4zm3.84 3.16v-8.59h1.73v8.59zm3.66-2.79l1.69-.17a2.06 2.06 0 0 0 .62 1.25 2.28 2.28 0 0 0 2.52 0 1 1 0 0 0 .42-.83.75.75 0 0 0-.17-.51 1.42 1.42 0 0 0-.63-.38c-.2-.07-.66-.19-1.39-.37a4.71 4.71 0 0 1-1.95-.85 2.22 2.22 0 0 1-.79-1.73 2.19 2.19 0 0 1 .37-1.23 2.33 2.33 0 0 1 1.07-.87 4.29 4.29 0 0 1 1.69-.3 3.61 3.61 0 0 1 2.43.71 2.49 2.49 0 0 1 .86 1.9l-1.73.07a1.46 1.46 0 0 0-.48-.95 1.76 1.76 0 0 0-1.1-.29 2 2 0 0 0-1.18.31.63.63 0 0 0-.28.53.65.65 0 0 0 .26.52 4.43 4.43 0 0 0 1.59.58 8.16 8.16 0 0 1 1.88.62 2.42 2.42 0 0 1 .95.87 2.65 2.65 0 0 1 .34 1.37 2.56 2.56 0 0 1-.41 1.38 2.45 2.45 0 0 1-1.16 1 4.84 4.84 0 0 1-1.87.31 3.71 3.71 0 0 1-2.5-.75 3.31 3.31 0 0 1-1.05-2.19zm9.16-5.8h3.17a6.7 6.7 0 0 1 1.64.16 2.9 2.9 0 0 1 1.29.8 3.69 3.69 0 0 1 .82 1.39 6.25 6.25 0 0 1 .28 2 5.61 5.61 0 0 1-.26 1.83 3.78 3.78 0 0 1-.92 1.51 3.05 3.05 0 0 1-1.22.69 5.24 5.24 0 0 1-1.53.18h-3.27zm1.74 1.45v5.69h1.29a4.4 4.4 0 0 0 1.05-.08 1.61 1.61 0 0 0 .7-.36 1.66 1.66 0 0 0 .45-.83 5.4 5.4 0 0 0 .18-1.57 5.06 5.06 0 0 0-.18-1.53 1.93 1.93 0 0 0-.49-.83 1.64 1.64 0 0 0-.8-.4 7.17 7.17 0 0 0-1.42-.09zm-243.5-182.6h3.17a6.15 6.15 0 0 1 1.63.16 2.92 2.92 0 0 1 1.3.79 3.91 3.91 0 0 1 .82 1.39 6.58 6.58 0 0 1 .28 2 5.52 5.52 0 0 1-.27 1.83 3.72 3.72 0 0 1-.92 1.52 3 3 0 0 1-1.22.68 4.88 4.88 0 0 1-1.53.19h-3.26zm1.73 1.45v5.69h1.3a5 5 0 0 0 1-.08 1.51 1.51 0 0 0 .7-.36 1.85 1.85 0 0 0 .46-.83 5.5 5.5 0 0 0 .17-1.57 5 5 0 0 0-.17-1.53 1.91 1.91 0 0 0-.49-.83 1.64 1.64 0 0 0-.81-.41 8.31 8.31 0 0 0-1.42-.08zm7.66 7.14v-8.59h3.65a6.17 6.17 0 0 1 2 .23 2 2 0 0 1 1 .82 2.5 2.5 0 0 1 .38 1.35 2.29 2.29 0 0 1-.57 1.6 2.67 2.67 0 0 1-1.7.79 3.72 3.72 0 0 1 .93.73 10.26 10.26 0 0 1 1 1.39l1 1.68h-2.04l-1.25-1.87a12.54 12.54 0 0 0-.92-1.27 1.23 1.23 0 0 0-.52-.35 2.63 2.63 0 0 0-.87-.1h-.35v3.59zm1.74-5h1.28a6.59 6.59 0 0 0 1.56-.11 1 1 0 0 0 .49-.36 1.17 1.17 0 0 0 .17-.64 1 1 0 0 0-.23-.7 1.05 1.05 0 0 0-.65-.34h-2.62zm7.59 5v-8.59h1.74v8.59zm4.11 0v-8.59h2.78a10.75 10.75 0 0 1 2.06.12 2.21 2.21 0 0 1 1.24.85 2.67 2.67 0 0 1 .5 1.67 2.81 2.81 0 0 1-.29 1.33 2.34 2.34 0 0 1-.73.85 2.4 2.4 0 0 1-.9.4 9.91 9.91 0 0 1-1.8.13h-1.13v3.24zm1.73-7.14v2.44h1a4.43 4.43 0 0 0 1.37-.14 1.14 1.14 0 0 0 .54-.42 1.09 1.09 0 0 0 .2-.67 1.11 1.11 0 0 0-.27-.77 1.24 1.24 0 0 0-.7-.38 8.16 8.16 0 0 0-1.25-.06zm6.99 7.14v-8.59h2.78a10.88 10.88 0 0 1 2.07.12 2.22 2.22 0 0 1 1.23.85 2.61 2.61 0 0 1 .5 1.67 2.7 2.7 0 0 1-.29 1.33 2.34 2.34 0 0 1-.73.85 2.43 2.43 0 0 1-.89.4 10.07 10.07 0 0 1-1.8.13h-1.13v3.24zm1.74-7.14v2.44h.95a4.47 4.47 0 0 0 1.38-.14 1.11 1.11 0 0 0 .73-1.09 1.11 1.11 0 0 0-.27-.77 1.21 1.21 0 0 0-.7-.38 8.16 8.16 0 0 0-1.25-.06zm6.95 7.14v-8.59h1.74v8.59zm4.11 0v-8.59h1.68l3.52 5.73v-5.73h1.61v8.59h-1.74l-3.46-5.61v5.61zm13.36-3.16v-1.45h3.74v3.42a4.74 4.74 0 0 1-1.58.93 5.7 5.7 0 0 1-2.09.4 4.75 4.75 0 0 1-2.35-.56 3.64 3.64 0 0 1-1.51-1.62 5.15 5.15 0 0 1-.5-2.29 4.87 4.87 0 0 1 .56-2.38 3.7 3.7 0 0 1 1.65-1.6 4.35 4.35 0 0 1 2.05-.43 4.08 4.08 0 0 1 2.5.67 3 3 0 0 1 1.16 1.85l-1.72.33a1.84 1.84 0 0 0-.69-1 2 2 0 0 0-1.25-.37 2.36 2.36 0 0 0-1.81.72 3.08 3.08 0 0 0-.67 2.14 3.4 3.4 0 0 0 .68 2.3 2.28 2.28 0 0 0 1.78.76 3.06 3.06 0 0 0 1.1-.21 4.18 4.18 0 0 0 .94-.52v-1.09zm-68.9 14.76l1.69-.16a2 2 0 0 0 .62 1.24 1.84 1.84 0 0 0 1.25.4 1.94 1.94 0 0 0 1.27-.35 1.06 1.06 0 0 0 .42-.83.78.78 0 0 0-.18-.52 1.37 1.37 0 0 0-.62-.37c-.2-.07-.67-.2-1.39-.38a4.7 4.7 0 0 1-2-.85 2.24 2.24 0 0 1-.79-1.72 2.27 2.27 0 0 1 .37-1.23 2.35 2.35 0 0 1 1.08-.87 4.26 4.26 0 0 1 1.69-.3 3.63 3.63 0 0 1 2.43.71 2.48 2.48 0 0 1 .86 1.89l-1.73.08a1.51 1.51 0 0 0-.48-.95 1.72 1.72 0 0 0-1.1-.29 1.93 1.93 0 0 0-1.18.31.61.61 0 0 0-.28.53.66.66 0 0 0 .26.52 4.48 4.48 0 0 0 1.59.57 8.37 8.37 0 0 1 1.87.62 2.45 2.45 0 0 1 1 .88 2.5 2.5 0 0 1 .35 1.36 2.56 2.56 0 0 1-.41 1.39 2.42 2.42 0 0 1-1.16.95 4.86 4.86 0 0 1-1.87.32 3.76 3.76 0 0 1-2.51-.75 3.3 3.3 0 0 1-1.05-2.2zm9.16 2.8v-8.59h2.79a10.83 10.83 0 0 1 2.06.12 2.27 2.27 0 0 1 1.24.85 2.65 2.65 0 0 1 .49 1.67 2.82 2.82 0 0 1-.28 1.33 2.44 2.44 0 0 1-.73.85 2.55 2.55 0 0 1-.9.4 10 10 0 0 1-1.8.13h-1.13v3.24zm1.74-7.14v2.44h.95a4.43 4.43 0 0 0 1.37-.14 1.14 1.14 0 0 0 .54-.42 1.15 1.15 0 0 0 .2-.67 1.07 1.07 0 0 0-.28-.77 1.18 1.18 0 0 0-.69-.38 8.25 8.25 0 0 0-1.25-.06zm6.99 7.14v-8.59h3.65a6.17 6.17 0 0 1 2 .23 2 2 0 0 1 1 .82 2.5 2.5 0 0 1 .38 1.35 2.29 2.29 0 0 1-.57 1.6 2.67 2.67 0 0 1-1.7.79 3.72 3.72 0 0 1 .93.73 10.26 10.26 0 0 1 1 1.39l1.05 1.68h-2.08l-1.25-1.87a12.54 12.54 0 0 0-.92-1.27 1.23 1.23 0 0 0-.52-.35 2.63 2.63 0 0 0-.87-.1h-.35v3.59zm1.74-5h1.28a6.59 6.59 0 0 0 1.56-.11 1 1 0 0 0 .49-.36 1.17 1.17 0 0 0 .17-.64 1 1 0 0 0-.23-.7 1.05 1.05 0 0 0-.65-.34h-2.62zm7.59 5v-8.59h1.74v8.59zm4.13 0v-8.59h1.68l3.52 5.73v-5.73h1.61v8.59H251l-3.46-5.61v5.61zm13.36-3.16v-1.45H263v3.42a4.74 4.74 0 0 1-1.58.93 5.7 5.7 0 0 1-2.09.4 4.75 4.75 0 0 1-2.35-.56 3.64 3.64 0 0 1-1.51-1.62 5.15 5.15 0 0 1-.5-2.29 4.87 4.87 0 0 1 .56-2.38 3.73 3.73 0 0 1 1.64-1.6 4.42 4.42 0 0 1 2.06-.43 4.08 4.08 0 0 1 2.5.67 3 3 0 0 1 1.16 1.85l-1.73.33a1.77 1.77 0 0 0-.68-1 2 2 0 0 0-1.25-.37 2.36 2.36 0 0 0-1.81.72 3.08 3.08 0 0 0-.67 2.14 3.4 3.4 0 0 0 .68 2.3 2.28 2.28 0 0 0 1.78.76 3.06 3.06 0 0 0 1.1-.21 4.18 4.18 0 0 0 .94-.52v-1.09zm5.62.36l1.69-.16a2 2 0 0 0 .61 1.24 1.85 1.85 0 0 0 1.26.4 1.89 1.89 0 0 0 1.26-.35 1 1 0 0 0 .43-.83.78.78 0 0 0-.18-.52 1.43 1.43 0 0 0-.62-.37c-.21-.07-.67-.2-1.39-.38a4.7 4.7 0 0 1-2-.85 2.25 2.25 0 0 1-.42-3 2.38 2.38 0 0 1 1.07-.87 4.29 4.29 0 0 1 1.69-.3 3.66 3.66 0 0 1 2.44.71 2.52 2.52 0 0 1 .86 1.89l-1.74.08a1.46 1.46 0 0 0-.47-.95 1.74 1.74 0 0 0-1.1-.29 2 2 0 0 0-1.19.31.62.62 0 0 0-.27.53.63.63 0 0 0 .26.52 4.4 4.4 0 0 0 1.59.57 8.56 8.56 0 0 1 1.87.62 2.45 2.45 0 0 1 1 .88 2.71 2.71 0 0 1-.07 2.75 2.38 2.38 0 0 1-1.16.95 4.83 4.83 0 0 1-1.87.32 3.73 3.73 0 0 1-2.5-.75 3.3 3.3 0 0 1-1.05-2.15zm13.16 2.8v-8.59h1.74v8.59zm3.67-2.8l1.69-.16a2 2 0 0 0 .62 1.24 1.84 1.84 0 0 0 1.25.4 1.94 1.94 0 0 0 1.27-.35 1.06 1.06 0 0 0 .44-.81.78.78 0 0 0-.18-.52 1.43 1.43 0 0 0-.62-.37c-.21-.07-.67-.2-1.39-.38a4.7 4.7 0 0 1-2-.85 2.24 2.24 0 0 1-.79-1.72 2.27 2.27 0 0 1 .37-1.23 2.35 2.35 0 0 1 1.08-.87 4.26 4.26 0 0 1 1.69-.3 3.63 3.63 0 0 1 2.43.71 2.48 2.48 0 0 1 .86 1.89l-1.74.08a1.46 1.46 0 0 0-.47-.95 1.72 1.72 0 0 0-1.1-.29 2 2 0 0 0-1.19.31.62.62 0 0 0-.27.53.66.66 0 0 0 .26.52 4.48 4.48 0 0 0 1.59.57 8.56 8.56 0 0 1 1.87.62 2.45 2.45 0 0 1 .95.88 2.5 2.5 0 0 1 .35 1.36 2.56 2.56 0 0 1-.41 1.39 2.45 2.45 0 0 1-1.17.95 4.81 4.81 0 0 1-1.86.32 3.76 3.76 0 0 1-2.51-.75 3.3 3.3 0 0 1-1.02-2.22zm9.16-5.79h3.17a6.15 6.15 0 0 1 1.63.16 2.86 2.86 0 0 1 1.3.79 3.77 3.77 0 0 1 .82 1.39 6.3 6.3 0 0 1 .28 2 5.81 5.81 0 0 1-.26 1.83 3.94 3.94 0 0 1-.92 1.52 3 3 0 0 1-1.22.68 5 5 0 0 1-1.54.19h-3.26zm1.73 1.45V639h1.3a5.15 5.15 0 0 0 1.08 0 1.61 1.61 0 0 0 .7-.36 1.94 1.94 0 0 0 .45-.83 5.45 5.45 0 0 0 .18-1.57 5 5 0 0 0-.18-1.53 1.91 1.91 0 0 0-.49-.83 1.65 1.65 0 0 0-.8-.41 8.54 8.54 0 0 0-1.43-.08zm166.76-7.26h-1.89l-.75-2h-3.43l-.71 2h-1.84l3.35-8.59h1.83zm-3.19-3.4l-1.19-3.19-1.16 3.19zm4.81-5.19h1.73v4.65a8.34 8.34 0 0 0 .07 1.43 1.35 1.35 0 0 0 .53.85 1.86 1.86 0 0 0 1.14.32 1.78 1.78 0 0 0 1.12-.3 1.19 1.19 0 0 0 .45-.74 10.07 10.07 0 0 0 .07-1.46v-4.75h1.74V622a11.84 11.84 0 0 1-.14 2.18 2.48 2.48 0 0 1-.52 1.08 2.61 2.61 0 0 1-1 .7 4.29 4.29 0 0 1-1.65.26 4.73 4.73 0 0 1-1.87-.28 2.71 2.71 0 0 1-1-.74 2.44 2.44 0 0 1-.48-1 10 10 0 0 1-.17-2.18zm9 5.79l1.68-.16a2 2 0 0 0 .62 1.24 1.85 1.85 0 0 0 1.26.4 1.89 1.89 0 0 0 1.26-.35 1.07 1.07 0 0 0 .43-.83.78.78 0 0 0-.18-.52 1.41 1.41 0 0 0-.63-.37c-.2-.07-.66-.2-1.39-.38a4.58 4.58 0 0 1-1.95-.85 2.25 2.25 0 0 1-.42-3 2.33 2.33 0 0 1 1.07-.87 4.29 4.29 0 0 1 1.69-.3 3.66 3.66 0 0 1 2.44.71 2.48 2.48 0 0 1 .85 1.89L475 620a1.42 1.42 0 0 0-.48-.95 1.7 1.7 0 0 0-1.1-.29 2 2 0 0 0-1.18.31.63.63 0 0 0-.28.53.66.66 0 0 0 .26.52 4.47 4.47 0 0 0 1.6.57 8.75 8.75 0 0 1 1.87.62 2.36 2.36 0 0 1 1.29 2.24 2.56 2.56 0 0 1-.41 1.39 2.38 2.38 0 0 1-1.16.95 4.83 4.83 0 0 1-1.87.32 3.71 3.71 0 0 1-2.5-.75 3.3 3.3 0 0 1-1.04-2.18zm11.06 2.8v-7.14h-2.55v-1.45h6.83v1.45h-2.54v7.14zm6.07 0v-8.59h1.73v8.59zm4.12 0v-8.59h1.69l3.51 5.73v-5.73h1.62v8.59h-1.74l-3.47-5.61v5.61zM465 640.48v-8.59h1.74v8.59zm3.66-2.8l1.69-.16a2 2 0 0 0 .61 1.24 1.85 1.85 0 0 0 1.26.4 1.89 1.89 0 0 0 1.26-.35 1 1 0 0 0 .43-.83.78.78 0 0 0-.18-.52 1.43 1.43 0 0 0-.62-.37c-.21-.07-.67-.2-1.39-.38a4.7 4.7 0 0 1-2-.85 2.25 2.25 0 0 1-.42-3 2.38 2.38 0 0 1 1.07-.87 4.29 4.29 0 0 1 1.69-.3 3.66 3.66 0 0 1 2.44.71 2.52 2.52 0 0 1 .86 1.89l-1.74.08a1.42 1.42 0 0 0-.48-.95 1.69 1.69 0 0 0-1.09-.29 2 2 0 0 0-1.19.31.62.62 0 0 0-.27.53.63.63 0 0 0 .26.52 4.4 4.4 0 0 0 1.59.57 8.56 8.56 0 0 1 1.87.62 2.45 2.45 0 0 1 .95.88 2.71 2.71 0 0 1-.07 2.75 2.38 2.38 0 0 1-1.16.95 4.83 4.83 0 0 1-1.87.32 3.73 3.73 0 0 1-2.5-.75 3.3 3.3 0 0 1-1-2.15zm9.16-5.79H481a6.15 6.15 0 0 1 1.63.16 2.92 2.92 0 0 1 1.3.79 3.91 3.91 0 0 1 .82 1.39 6.58 6.58 0 0 1 .28 2 5.52 5.52 0 0 1-.27 1.83 3.72 3.72 0 0 1-.92 1.52 3 3 0 0 1-1.22.68 4.88 4.88 0 0 1-1.53.19h-3.26zm1.73 1.45V639h1.3a5 5 0 0 0 1-.08 1.51 1.51 0 0 0 .7-.36 1.85 1.85 0 0 0 .46-.83 5.5 5.5 0 0 0 .17-1.57 5 5 0 0 0-.17-1.53 1.91 1.91 0 0 0-.49-.83 1.64 1.64 0 0 0-.81-.41 8.31 8.31 0 0 0-1.42-.08zm168.9-15.85h3.17a6.15 6.15 0 0 1 1.63.16 2.86 2.86 0 0 1 1.3.79 3.77 3.77 0 0 1 .82 1.39 6.3 6.3 0 0 1 .28 2 5.81 5.81 0 0 1-.26 1.83 3.83 3.83 0 0 1-.92 1.52 3 3 0 0 1-1.22.68 5 5 0 0 1-1.54.19h-3.26zm1.73 1.45v5.69h1.3a5.15 5.15 0 0 0 1-.08 1.61 1.61 0 0 0 .7-.36 1.94 1.94 0 0 0 .45-.83 5.45 5.45 0 0 0 .18-1.57 5 5 0 0 0-.18-1.53 1.91 1.91 0 0 0-.49-.83 1.65 1.65 0 0 0-.8-.41 8.54 8.54 0 0 0-1.43-.08zm7.66 7.14v-8.59h6.37v1.45h-4.63v1.9h4.31v1.45h-4.31v2.34h4.79v1.45zm8.77 0v-8.52h1.74v7.07h4.31v1.45zm14.03 0l-3.07-8.59h1.88l2.18 6.35 2.1-6.35h1.84l-3.07 8.59zm13.36 0h-1.88l-.75-2H688l-.71 2h-1.84l3.35-8.59h1.83zm-3.19-3.4l-1.18-3.19-1.17 3.19zm4.91 3.4v-8.52h1.73v7.07h4.32v1.45zm8.05 0v-8.52h1.73v7.07h4.32v1.45zm8 0v-8.59h6.37v1.45h-4.63v1.9h4.31v1.45h-4.31v2.34h4.8v1.45zm-38.43 14.4v-8.59h1.74v8.59zm3.66-2.8l1.69-.16a2 2 0 0 0 .61 1.24 1.85 1.85 0 0 0 1.26.4 1.89 1.89 0 0 0 1.26-.35 1 1 0 0 0 .43-.83.78.78 0 0 0-.18-.52 1.43 1.43 0 0 0-.62-.37c-.21-.07-.67-.2-1.39-.38a4.64 4.64 0 0 1-2-.85 2.25 2.25 0 0 1-.42-3 2.38 2.38 0 0 1 1.07-.87 4.29 4.29 0 0 1 1.69-.3 3.66 3.66 0 0 1 2.44.71 2.52 2.52 0 0 1 .86 1.89l-1.74.08a1.42 1.42 0 0 0-.48-.95 1.69 1.69 0 0 0-1.09-.29 2 2 0 0 0-1.19.31.62.62 0 0 0-.27.53.65.65 0 0 0 .25.52 4.47 4.47 0 0 0 1.6.57 8.56 8.56 0 0 1 1.87.62A2.36 2.36 0 0 1 684 638a2.48 2.48 0 0 1-.41 1.39 2.38 2.38 0 0 1-1.16.95 4.83 4.83 0 0 1-1.87.32 3.73 3.73 0 0 1-2.5-.75 3.3 3.3 0 0 1-1.06-2.23zm9.17-5.79h3.17a6.15 6.15 0 0 1 1.63.16 2.83 2.83 0 0 1 1.29.79 3.79 3.79 0 0 1 .83 1.39 6.58 6.58 0 0 1 .28 2 5.52 5.52 0 0 1-.27 1.83 3.72 3.72 0 0 1-.92 1.52 3 3 0 0 1-1.22.68 4.88 4.88 0 0 1-1.53.19h-3.26zm1.73 1.45V639h1.29a5 5 0 0 0 1-.08 1.56 1.56 0 0 0 .7-.36 1.85 1.85 0 0 0 .46-.83 5.89 5.89 0 0 0 .17-1.57 5.37 5.37 0 0 0-.17-1.53 1.91 1.91 0 0 0-.49-.83 1.69 1.69 0 0 0-.81-.41 8.31 8.31 0 0 0-1.42-.08zm-18.04-162.65v-8.59h2.78a9.7 9.7 0 0 1 2.06.13 2.14 2.14 0 0 1 1.24.84 2.67 2.67 0 0 1 .5 1.67 2.81 2.81 0 0 1-.29 1.33 2.34 2.34 0 0 1-.73.85 2.4 2.4 0 0 1-.9.4 9.07 9.07 0 0 1-1.8.13h-1.13v3.24zm1.73-7.14V466h.95a4.39 4.39 0 0 0 1.37-.14 1.16 1.16 0 0 0 .55-.42 1.15 1.15 0 0 0 .19-.67 1.11 1.11 0 0 0-.27-.77 1.24 1.24 0 0 0-.7-.38 8.16 8.16 0 0 0-1.25-.06zm7.01 7.14v-8.59h5.88v1.45h-4.15v2h3.59V467h-3.59v3.65zm8.08 0v-8.52h1.73v7.07h4.32v1.45zm7.99-8.59h1.74v4.65a10.15 10.15 0 0 0 .06 1.43 1.35 1.35 0 0 0 .53.85 1.87 1.87 0 0 0 1.15.32 1.75 1.75 0 0 0 1.11-.3 1.19 1.19 0 0 0 .45-.74 9.72 9.72 0 0 0 .08-1.46v-4.75h1.73v4.51a11.84 11.84 0 0 1-.14 2.18 2.37 2.37 0 0 1-.52 1.08 2.61 2.61 0 0 1-1 .7 4.26 4.26 0 0 1-1.65.26 4.8 4.8 0 0 1-1.87-.28 2.67 2.67 0 0 1-1-.74 2.34 2.34 0 0 1-.49-.95 10.66 10.66 0 0 1-.17-2.18zm13.4 5.43v-1.45h3.73v3.42a4.74 4.74 0 0 1-1.58.93 5.62 5.62 0 0 1-2.09.4 4.78 4.78 0 0 1-2.35-.56 3.64 3.64 0 0 1-1.51-1.62 5.29 5.29 0 0 1-.5-2.29 5 5 0 0 1 .56-2.38 3.81 3.81 0 0 1 1.65-1.6A4.39 4.39 0 0 1 708 462a4.1 4.1 0 0 1 2.5.67 3.07 3.07 0 0 1 1.15 1.86l-1.72.32a1.82 1.82 0 0 0-.68-1 2 2 0 0 0-1.25-.37 2.36 2.36 0 0 0-1.81.72 3 3 0 0 0-.67 2.14 3.35 3.35 0 0 0 .68 2.3 2.25 2.25 0 0 0 1.78.76 3 3 0 0 0 1.09-.21 4 4 0 0 0 .94-.52v-1.09zm10.05 0v-1.45h3.74v3.42a4.84 4.84 0 0 1-1.58.93 5.71 5.71 0 0 1-2.1.4 4.8 4.8 0 0 1-2.35-.56 3.62 3.62 0 0 1-1.5-1.62 5.16 5.16 0 0 1-.51-2.29 4.87 4.87 0 0 1 .57-2.38 3.73 3.73 0 0 1 1.64-1.6 4.39 4.39 0 0 1 2.06-.43 4.08 4.08 0 0 1 2.5.67 3.09 3.09 0 0 1 1.16 1.86l-1.73.32a1.77 1.77 0 0 0-.68-1 2 2 0 0 0-1.25-.37 2.36 2.36 0 0 0-1.81.72 3.08 3.08 0 0 0-.67 2.14 3.4 3.4 0 0 0 .68 2.3 2.26 2.26 0 0 0 1.78.76 3.06 3.06 0 0 0 1.1-.21 4.42 4.42 0 0 0 .94-.52v-1.09zm6.06 3.16v-8.59h6.37v1.45h-4.64v1.9h4.31v1.45h-4.31v2.34h4.8v1.45zm8.73 0v-8.59h3.65a6.1 6.1 0 0 1 2 .23 2 2 0 0 1 1 .82 2.49 2.49 0 0 1 .37 1.35 2.29 2.29 0 0 1-.57 1.6 2.7 2.7 0 0 1-1.7.8 3.48 3.48 0 0 1 .93.72 8.73 8.73 0 0 1 1 1.39l1 1.68h-2.07l-1.26-1.87a13.07 13.07 0 0 0-.91-1.27 1.37 1.37 0 0 0-.52-.35 2.74 2.74 0 0 0-.88-.1h-.35v3.59zm1.73-5h1.28a6.47 6.47 0 0 0 1.56-.11 1 1 0 0 0 .49-.36 1.1 1.1 0 0 0 .18-.64 1 1 0 0 0-.24-.7 1.05 1.05 0 0 0-.65-.34h-2.62zm9.62 5l-3.07-8.59h1.88l2.18 6.35 2.1-6.35h1.84l-3.08 8.59zm6.48 0v-8.59h1.74v8.59zm4.16 0v-8.52h1.73v7.07h4.31v1.45zm8.1 0v-8.52h1.73v7.07H769v1.45zm8 0v-8.59h6.37v1.45h-4.64v1.9H777v1.45h-4.32v2.34h4.8v1.45zm-57.37 14.4v-8.59h1.74v8.59zm3.67-2.8l1.69-.16a2.08 2.08 0 0 0 .61 1.25 2.33 2.33 0 0 0 2.52 0 1 1 0 0 0 .43-.83.78.78 0 0 0-.18-.52 1.43 1.43 0 0 0-.62-.37c-.21-.07-.67-.2-1.39-.38a4.64 4.64 0 0 1-2-.85 2.25 2.25 0 0 1-.42-3 2.38 2.38 0 0 1 1.07-.87 4.29 4.29 0 0 1 1.69-.3 3.66 3.66 0 0 1 2.44.71A2.52 2.52 0 0 1 724 479l-1.74.08a1.42 1.42 0 0 0-.48-.95 1.69 1.69 0 0 0-1.09-.29 2 2 0 0 0-1.19.31.62.62 0 0 0-.27.53.65.65 0 0 0 .25.52 4.47 4.47 0 0 0 1.6.57 8.56 8.56 0 0 1 1.87.62 2.36 2.36 0 0 1 1.29 2.24 2.48 2.48 0 0 1-.41 1.39 2.45 2.45 0 0 1-1.16 1 5 5 0 0 1-1.87.31 3.73 3.73 0 0 1-2.5-.75 3.3 3.3 0 0 1-1-2.29zm9.16-5.79h3.17a6.15 6.15 0 0 1 1.63.16 2.92 2.92 0 0 1 1.3.79 3.91 3.91 0 0 1 .82 1.39 6.58 6.58 0 0 1 .28 2 5.52 5.52 0 0 1-.27 1.83 3.72 3.72 0 0 1-.92 1.52 3 3 0 0 1-1.22.68 4.88 4.88 0 0 1-1.53.19h-3.26zm1.73 1.45v5.69h1.29a5 5 0 0 0 1-.08 1.56 1.56 0 0 0 .7-.36 1.79 1.79 0 0 0 .46-.83 5.5 5.5 0 0 0 .17-1.57 5 5 0 0 0-.17-1.53 2 2 0 0 0-.49-.83 1.69 1.69 0 0 0-.81-.41A8.31 8.31 0 0 0 729 478zm-45.6-102.24v-8.59h2.6l1.55 5.86 1.55-5.86h2.6v8.59h-1.61V369l-1.71 6.76h-1.67l-1.7-6.76v6.76zm18.49 0h-1.89l-.75-1.95H695l-.71 1.95h-1.84l3.34-8.59h1.84zm-3.2-3.4l-1.18-3.18-1.16 3.18zm4.85 3.4v-8.59h1.69l3.52 5.74v-5.74h1.61v8.59h-1.74l-3.47-5.6v5.6zm9.02-4.24a5.48 5.48 0 0 1 .39-2.2 4.1 4.1 0 0 1 .8-1.18 3.23 3.23 0 0 1 1.11-.77 4.66 4.66 0 0 1 1.85-.34 4 4 0 0 1 3 1.17 5.26 5.26 0 0 1 0 6.53 4 4 0 0 1-3 1.18 4 4 0 0 1-3-1.17 4.45 4.45 0 0 1-1.15-3.22zm1.79-.06a3.21 3.21 0 0 0 .67 2.21 2.3 2.3 0 0 0 3.41 0 3.26 3.26 0 0 0 .67-2.24 3.21 3.21 0 0 0-.65-2.2 2.17 2.17 0 0 0-1.72-.73 2.22 2.22 0 0 0-1.73.73 3.29 3.29 0 0 0-.65 2.23zm8.62 4.3v-8.59h3.65a6.34 6.34 0 0 1 2 .23 2 2 0 0 1 1 .83 2.45 2.45 0 0 1 .38 1.35 2.29 2.29 0 0 1-.57 1.6 2.75 2.75 0 0 1-1.7.79 4.4 4.4 0 0 1 .93.72 9.81 9.81 0 0 1 1 1.4l1 1.67h-2.07l-1.25-1.87a12 12 0 0 0-.92-1.26 1.44 1.44 0 0 0-.52-.36 3 3 0 0 0-.87-.09h-.35v3.58zm1.74-4.95h1.28a6.59 6.59 0 0 0 1.56-.11.92.92 0 0 0 .48-.36 1.13 1.13 0 0 0 .18-.65 1.05 1.05 0 0 0-.23-.7 1 1 0 0 0-.66-.33h-2.61zm-27.96 19.35v-8.59h1.74v8.59zm3.67-2.79l1.69-.17a2 2 0 0 0 .62 1.25 1.82 1.82 0 0 0 1.25.4 2 2 0 0 0 1.26-.35 1.06 1.06 0 0 0 .43-.83.77.77 0 0 0-.18-.52 1.43 1.43 0 0 0-.62-.37c-.21-.07-.67-.2-1.39-.38a4.7 4.7 0 0 1-2-.85 2.22 2.22 0 0 1-.79-1.73 2.18 2.18 0 0 1 .37-1.22 2.26 2.26 0 0 1 1.07-.87 4.31 4.31 0 0 1 1.7-.3 3.6 3.6 0 0 1 2.43.71 2.52 2.52 0 0 1 .86 1.89l-1.74.07a1.48 1.48 0 0 0-.47-.95 1.78 1.78 0 0 0-1.1-.29 2.05 2.05 0 0 0-1.19.31.66.66 0 0 0 0 1.06 4.69 4.69 0 0 0 1.59.57 8.56 8.56 0 0 1 1.87.62 2.35 2.35 0 0 1 1 .87 2.56 2.56 0 0 1 .34 1.37A2.53 2.53 0 0 1 705 390a4.84 4.84 0 0 1-1.87.31 3.73 3.73 0 0 1-2.5-.75 3.25 3.25 0 0 1-1.02-2.24zm9.16-5.8h3.17a6.08 6.08 0 0 1 1.63.17 2.86 2.86 0 0 1 1.3.79 3.77 3.77 0 0 1 .82 1.39 6.54 6.54 0 0 1 .28 2 5.52 5.52 0 0 1-.27 1.83 3.78 3.78 0 0 1-.92 1.52 3 3 0 0 1-1.21.68 5.37 5.37 0 0 1-1.54.18h-3.26zm1.73 1.48v5.69h1.3a4.38 4.38 0 0 0 1.05-.09 1.71 1.71 0 0 0 .7-.35 1.94 1.94 0 0 0 .45-.83 5.53 5.53 0 0 0 .18-1.58 5.06 5.06 0 0 0-.18-1.53 2 2 0 0 0-.49-.83 1.63 1.63 0 0 0-.81-.4 7.36 7.36 0 0 0-1.42-.08zM368.61 105v-8.5h1.73v7.07h4.31V105zm7.95 0v-8.57h1.73V105zm4.11-8.57h3.43a9.33 9.33 0 0 1 1.52.09 2.1 2.1 0 0 1 .9.35 2.3 2.3 0 0 1 .66.72 1.89 1.89 0 0 1 .26 1 2.08 2.08 0 0 1-.32 1.11 2 2 0 0 1-.88.76 2.22 2.22 0 0 1 1.2.78 2 2 0 0 1 .43 1.29 2.59 2.59 0 0 1-.28 1.14 2.28 2.28 0 0 1-.74.88 2.37 2.37 0 0 1-1.16.41q-.44 0-2.1.06h-2.92zm1.73 1.43v2h2.4a1.17 1.17 0 0 0 .7-.31.9.9 0 0 0 .26-.67 1 1 0 0 0-.22-.65 1 1 0 0 0-.66-.3h-1.48zm0 3.42v2.29h1.6a7.41 7.41 0 0 0 1.19 0 1.08 1.08 0 0 0 .63-.34 1.07 1.07 0 0 0 .24-.73 1.09 1.09 0 0 0-.19-.66 1 1 0 0 0-.54-.39 6 6 0 0 0-1.54-.12zm7.65 3.72v-8.57h6.37v1.45h-4.64v1.91h4.32v1.45h-4.32v2.33h4.8V105zm8.73 0v-8.57h3.65a6.39 6.39 0 0 1 2 .23 2 2 0 0 1 1 .83 2.45 2.45 0 0 1 .38 1.35 2.31 2.31 0 0 1-.57 1.6 2.75 2.75 0 0 1-1.7.79 4.4 4.4 0 0 1 .93.72 10.18 10.18 0 0 1 1 1.39l1.03 1.66h-2.07l-1.26-1.87a11.34 11.34 0 0 0-.91-1.26 1.32 1.32 0 0 0-.52-.36 3 3 0 0 0-.87-.1h-.36V105zm1.73-5h1.29a6.82 6.82 0 0 0 1.56-.1.93.93 0 0 0 .48-.37A1.08 1.08 0 0 0 404 99a1.05 1.05 0 0 0-.23-.7 1.11 1.11 0 0 0-.66-.34h-2.62zm9.58 5v-7.12h-2.55v-1.45h6.83v1.45h-2.54V105zm8.38 0v-3.61l-3.15-5h2l2 3.4 2-3.4h2l-3.16 5V105zm-49.6 14.42v-8.59h1.74v3.38H374v-3.38h1.73v8.59H374v-3.76h-3.4v3.76zm9.33 0v-8.59h1.74v8.59zm4.15 0v-8.52h1.74v7.1h4.31v1.45zm8.06 0v-8.52h1.73v7.1h4.31v1.45zm11.78 0v-8.59h1.74v8.59zm3.67-2.79l1.69-.17a2 2 0 0 0 .62 1.25 1.87 1.87 0 0 0 1.25.4 1.89 1.89 0 0 0 1.26-.36 1 1 0 0 0 .43-.83.76.76 0 0 0-.18-.51 1.43 1.43 0 0 0-.62-.38c-.21-.07-.67-.19-1.39-.37a4.83 4.83 0 0 1-2-.85 2.22 2.22 0 0 1-.79-1.73 2.19 2.19 0 0 1 .37-1.23 2.38 2.38 0 0 1 1.07-.87 4.31 4.31 0 0 1 1.7-.3 3.65 3.65 0 0 1 2.43.71 2.56 2.56 0 0 1 .86 1.9l-1.74.07a1.46 1.46 0 0 0-.47-1 1.78 1.78 0 0 0-1.1-.29 2 2 0 0 0-1.19.31.65.65 0 0 0 0 1 4.43 4.43 0 0 0 1.59.58 8 8 0 0 1 1.87.62 2.35 2.35 0 0 1 .95.87 2.56 2.56 0 0 1 .34 1.37 2.53 2.53 0 0 1-1.57 2.34 4.84 4.84 0 0 1-1.87.31 3.73 3.73 0 0 1-2.5-.75 3.25 3.25 0 0 1-1.01-2.09zm9.14-5.8h3.17a6.61 6.61 0 0 1 1.63.16 2.88 2.88 0 0 1 1.3.8 3.69 3.69 0 0 1 .82 1.39 6.54 6.54 0 0 1 .28 2 5.6 5.6 0 0 1-.2 1.82 3.77 3.77 0 0 1-.91 1.51 3.12 3.12 0 0 1-1.22.69 5.37 5.37 0 0 1-1.54.18H415zm1.73 1.45V118h1.3a4.51 4.51 0 0 0 1.05-.08 1.61 1.61 0 0 0 .7-.36 1.83 1.83 0 0 0 .45-.83 5.4 5.4 0 0 0 .18-1.57 5.06 5.06 0 0 0-.18-1.53 2 2 0 0 0-.49-.83 1.63 1.63 0 0 0-.81-.4 7.1 7.1 0 0 0-1.42-.09zm175.45 25.44v-1.45h3.74v3.42a4.84 4.84 0 0 1-1.58.93 5.71 5.71 0 0 1-2.1.4 4.67 4.67 0 0 1-2.35-.57 3.5 3.5 0 0 1-1.5-1.61 5.19 5.19 0 0 1-.51-2.29 4.94 4.94 0 0 1 .57-2.39 3.76 3.76 0 0 1 1.64-1.59 4.39 4.39 0 0 1 2.06-.43 4.08 4.08 0 0 1 2.5.67 3.06 3.06 0 0 1 1.16 1.85l-1.73.33a1.79 1.79 0 0 0-.68-1 2 2 0 0 0-1.25-.37 2.36 2.36 0 0 0-1.81.72 3 3 0 0 0-.67 2.14 3.37 3.37 0 0 0 .68 2.29 2.27 2.27 0 0 0 1.78.77 2.83 2.83 0 0 0 1.09-.22 3.64 3.64 0 0 0 .94-.51v-1.09zm6.06 3.15v-8.59h6.37v1.46H600v1.9h4.31v1.45H600v2.34h4.8v1.44zm8.37-4.24a5.48 5.48 0 0 1 .39-2.2 4.1 4.1 0 0 1 .8-1.18 3.37 3.37 0 0 1 1.11-.77 4.66 4.66 0 0 1 1.85-.34 4 4 0 0 1 3 1.18 4.49 4.49 0 0 1 1.14 3.27 4.53 4.53 0 0 1-1.13 3.26 4.52 4.52 0 0 1-6.07 0 4.45 4.45 0 0 1-1.09-3.22zm1.79-.06a3.19 3.19 0 0 0 .67 2.21 2.3 2.3 0 0 0 3.41 0 4.06 4.06 0 0 0 0-4.44 2.39 2.39 0 0 0-3.45 0 3.21 3.21 0 0 0-.63 2.23zm8.6 4.3v-8.59h3.65a6 6 0 0 1 2 .24 1.91 1.91 0 0 1 1 .82 2.45 2.45 0 0 1 .38 1.35 2.29 2.29 0 0 1-.57 1.6 2.75 2.75 0 0 1-1.7.79 4.4 4.4 0 0 1 .93.72 10.44 10.44 0 0 1 1 1.4l1 1.67h-2.07l-1.21-1.87a13.85 13.85 0 0 0-.91-1.26 1.44 1.44 0 0 0-.52-.36 3.06 3.06 0 0 0-.87-.09h-.36v3.58zm1.73-5H620a6.59 6.59 0 0 0 1.56-.11.92.92 0 0 0 .48-.36 1.11 1.11 0 0 0 .18-.65 1.05 1.05 0 0 0-.23-.7 1.1 1.1 0 0 0-.66-.33h-2.62zm11.67 1.85v-1.45h3.73v3.42a4.79 4.79 0 0 1-1.57.93 5.71 5.71 0 0 1-2.1.4 4.67 4.67 0 0 1-2.35-.57 3.57 3.57 0 0 1-1.51-1.61 5.33 5.33 0 0 1-.5-2.29 5 5 0 0 1 .56-2.39 3.84 3.84 0 0 1 1.65-1.59 4.39 4.39 0 0 1 2.06-.43 4.1 4.1 0 0 1 2.5.67 3 3 0 0 1 1.15 1.85l-1.72.33a1.79 1.79 0 0 0-.68-1 2 2 0 0 0-1.25-.37 2.36 2.36 0 0 0-1.81.72 3 3 0 0 0-.67 2.14 3.32 3.32 0 0 0 .68 2.29 2.26 2.26 0 0 0 1.78.77 2.83 2.83 0 0 0 1.09-.22 3.64 3.64 0 0 0 .94-.51v-1.09zm6.05 3.15v-8.59h6.37v1.46h-4.63v1.9h4.31v1.45h-4.31v2.34H643v1.44zm10.66 0v-7.13h-2.55v-1.46h6.83v1.46h-2.54v7.13zm5.55-4.24a5.48 5.48 0 0 1 .39-2.2 4.1 4.1 0 0 1 .8-1.18 3.37 3.37 0 0 1 1.11-.77 4.66 4.66 0 0 1 1.85-.34 4 4 0 0 1 3 1.18 4.49 4.49 0 0 1 1.14 3.27 4.53 4.53 0 0 1-1.13 3.26 4.52 4.52 0 0 1-6.07 0 4.45 4.45 0 0 1-1.09-3.22zm1.79-.06a3.19 3.19 0 0 0 .67 2.21 2.3 2.3 0 0 0 3.41 0 4.06 4.06 0 0 0 0-4.44 2.17 2.17 0 0 0-1.72-.73 2.19 2.19 0 0 0-1.73.74 3.26 3.26 0 0 0-.63 2.22zm9.83 4.3l-2-8.59H664l1.29 5.9 1.57-5.9h2.07l1.5 6 1.32-6h1.75l-2.09 8.59h-1.84l-1.71-6.42-1.71 6.42zm10.85 0v-8.59h1.69l3.51 5.74v-5.74h1.61v8.59h-1.74l-3.46-5.6v5.6zm-49.93 14.4v-8.59h1.74v8.59zm3.67-2.79l1.69-.17a2 2 0 0 0 .62 1.25 1.84 1.84 0 0 0 1.25.4 2 2 0 0 0 1.27-.35 1.08 1.08 0 0 0 .42-.83.77.77 0 0 0-.18-.52 1.37 1.37 0 0 0-.62-.37c-.2-.07-.67-.2-1.39-.38a4.7 4.7 0 0 1-2-.85 2.26 2.26 0 0 1-.79-1.73 2.19 2.19 0 0 1 .38-1.22 2.28 2.28 0 0 1 1.07-.87 4.26 4.26 0 0 1 1.69-.3 3.56 3.56 0 0 1 2.43.71 2.48 2.48 0 0 1 .86 1.89l-1.73.08a1.54 1.54 0 0 0-.48-1 1.78 1.78 0 0 0-1.1-.29 2 2 0 0 0-1.18.31.63.63 0 0 0-.28.54.68.68 0 0 0 .26.52 4.69 4.69 0 0 0 1.59.57 8.37 8.37 0 0 1 1.87.62 2.29 2.29 0 0 1 1 .87 2.68 2.68 0 0 1-.06 2.75 2.5 2.5 0 0 1-1.16 1 4.86 4.86 0 0 1-1.87.32 3.66 3.66 0 0 1-2.5-.76 3.26 3.26 0 0 1-1.06-2.19zm9.13-5.8h3.17a6.08 6.08 0 0 1 1.63.17 2.86 2.86 0 0 1 1.3.79 3.77 3.77 0 0 1 .9 1.36 6.3 6.3 0 0 1 .28 2 5.81 5.81 0 0 1-.26 1.83 3.9 3.9 0 0 1-.92 1.52 3 3 0 0 1-1.22.68 5.32 5.32 0 0 1-1.54.18H638zm1.73 1.46v5.69h1.3a4.38 4.38 0 0 0 1.05-.09 1.71 1.71 0 0 0 .7-.35 1.94 1.94 0 0 0 .45-.83 5.53 5.53 0 0 0 .18-1.58 4.94 4.94 0 0 0-.18-1.52 2 2 0 0 0-.49-.84 1.64 1.64 0 0 0-.8-.4 7.55 7.55 0 0 0-1.43-.08zm-44.16 127.15v-8.59h3.65a6.34 6.34 0 0 1 2 .23 2 2 0 0 1 1 .83 2.45 2.45 0 0 1 .38 1.35 2.31 2.31 0 0 1-.57 1.6 2.75 2.75 0 0 1-1.7.79 4.4 4.4 0 0 1 .93.72 10.18 10.18 0 0 1 1 1.39l1 1.68h-2.07l-1.19-1.87a11.34 11.34 0 0 0-.91-1.26 1.44 1.44 0 0 0-.52-.36 3 3 0 0 0-.87-.1h-.36v3.59zm1.73-5h1.29a6.82 6.82 0 0 0 1.56-.1.89.89 0 0 0 .48-.37 1.08 1.08 0 0 0 .18-.64 1.05 1.05 0 0 0-.23-.7 1.11 1.11 0 0 0-.66-.34h-2.62zm7.3.76a5.45 5.45 0 0 1 .39-2.2 4.1 4.1 0 0 1 .8-1.18 3.41 3.41 0 0 1 1.11-.78 4.84 4.84 0 0 1 1.85-.34 4.05 4.05 0 0 1 3 1.18 5.26 5.26 0 0 1 0 6.53 4 4 0 0 1-3 1.18 4 4 0 0 1-3-1.17 4.45 4.45 0 0 1-1.15-3.22zm1.79-.06a3.21 3.21 0 0 0 .67 2.21 2.2 2.2 0 0 0 1.71.75 2.16 2.16 0 0 0 1.7-.74 4.08 4.08 0 0 0 0-4.45 2.19 2.19 0 0 0-1.72-.72 2.22 2.22 0 0 0-1.73.73 3.24 3.24 0 0 0-.63 2.23zm8.61-4.29h1.74v4.65a10.44 10.44 0 0 0 .06 1.44 1.45 1.45 0 0 0 .53.85 1.87 1.87 0 0 0 1.15.31 1.75 1.75 0 0 0 1.11-.3 1.19 1.19 0 0 0 .45-.74 9.62 9.62 0 0 0 .08-1.46v-4.75h1.73v4.51a11.18 11.18 0 0 1-.14 2.19 2.48 2.48 0 0 1-.52 1.08 2.72 2.72 0 0 1-1 .7 4.45 4.45 0 0 1-1.65.26 4.77 4.77 0 0 1-1.87-.29 2.57 2.57 0 0 1-1-.74 2.34 2.34 0 0 1-.49-1 10.66 10.66 0 0 1-.17-2.18zm9.41 8.59v-8.59h1.69l3.51 5.74v-5.74h1.61v8.59h-1.74l-3.46-5.6v5.6zm9.36-8.59h3.17a6.7 6.7 0 0 1 1.64.16 2.9 2.9 0 0 1 1.29.8 3.69 3.69 0 0 1 .82 1.39 6.25 6.25 0 0 1 .28 2 5.9 5.9 0 0 1-.26 1.83 3.78 3.78 0 0 1-.92 1.51 2.94 2.94 0 0 1-1.22.69 5.32 5.32 0 0 1-1.54.18h-3.26zm1.73 1.45v5.69h1.3a4.51 4.51 0 0 0 1.05-.08 1.61 1.61 0 0 0 .7-.36 1.74 1.74 0 0 0 .45-.83 5.4 5.4 0 0 0 .18-1.57 5.06 5.06 0 0 0-.18-1.53 1.93 1.93 0 0 0-.49-.83 1.64 1.64 0 0 0-.8-.4 7.22 7.22 0 0 0-1.43-.09zm-35.24 21.54v-8.59h3.65a6.34 6.34 0 0 1 2 .23 2 2 0 0 1 1 .83 2.45 2.45 0 0 1 .38 1.35 2.31 2.31 0 0 1-.57 1.6 2.75 2.75 0 0 1-1.7.79 3.94 3.94 0 0 1 .93.72 11 11 0 0 1 1 1.39l1 1.68h-2.08l-1.25-1.87a10.94 10.94 0 0 0-.92-1.26 1.36 1.36 0 0 0-.52-.36 2.93 2.93 0 0 0-.87-.1H602v3.59zm1.74-5h1.28a6.82 6.82 0 0 0 1.56-.1.91.91 0 0 0 .49-.37 1.15 1.15 0 0 0 .17-.64 1 1 0 0 0-.88-1H602zm7.29.76a5.45 5.45 0 0 1 .39-2.2 4.31 4.31 0 0 1 .8-1.18 3.41 3.41 0 0 1 1.11-.78 4.9 4.9 0 0 1 1.86-.34 4 4 0 0 1 3 1.18 4.53 4.53 0 0 1 1.14 3.28 4.47 4.47 0 0 1-1.13 3.25 4 4 0 0 1-3 1.18 4.05 4.05 0 0 1-3.05-1.17 4.45 4.45 0 0 1-1.12-3.22zm1.79-.06a3.21 3.21 0 0 0 .67 2.21 2.2 2.2 0 0 0 1.71.75 2.18 2.18 0 0 0 1.71-.74 3.31 3.31 0 0 0 .66-2.24 3.21 3.21 0 0 0-.65-2.21 2.4 2.4 0 0 0-3.44 0 3.24 3.24 0 0 0-.66 2.23zm14.11 1.14l1.68.54a3.7 3.7 0 0 1-1.28 2.08 3.64 3.64 0 0 1-2.28.69 3.72 3.72 0 0 1-2.82-1.17 4.5 4.5 0 0 1-1.1-3.2 4.68 4.68 0 0 1 1.11-3.33 3.81 3.81 0 0 1 2.91-1.19 3.53 3.53 0 0 1 2.56.94 3.29 3.29 0 0 1 .88 1.58l-1.72.41a1.82 1.82 0 0 0-.63-1.06 1.85 1.85 0 0 0-1.18-.38 2 2 0 0 0-1.55.68 3.41 3.41 0 0 0-.59 2.22 3.53 3.53 0 0 0 .59 2.32 1.89 1.89 0 0 0 1.52.69 1.74 1.74 0 0 0 1.19-.43 2.58 2.58 0 0 0 .71-1.39zm3.92 3.16v-8.59h1.73v3.82l3.51-3.82h2.33l-3.24 3.35 3.41 5.24h-2.24l-2.36-4-1.41 1.43v2.6zm-20.88 14.4v-8.59H610v8.59zm3.67-2.79l1.68-.17a2.06 2.06 0 0 0 .62 1.25 1.85 1.85 0 0 0 1.26.4 1.89 1.89 0 0 0 1.26-.36 1.06 1.06 0 0 0 .43-.83.76.76 0 0 0-.18-.51 1.42 1.42 0 0 0-.63-.38c-.2-.07-.66-.19-1.39-.37a4.58 4.58 0 0 1-2-.85 2.22 2.22 0 0 1-.79-1.73 2.19 2.19 0 0 1 .37-1.23 2.33 2.33 0 0 1 1.07-.87 4.29 4.29 0 0 1 1.69-.3 3.66 3.66 0 0 1 2.44.71 2.51 2.51 0 0 1 .85 1.9l-1.73.07a1.42 1.42 0 0 0-.48-.95 1.76 1.76 0 0 0-1.1-.29 2 2 0 0 0-1.18.31.63.63 0 0 0-.28.53.68.68 0 0 0 .26.53 4.68 4.68 0 0 0 1.6.57 8.22 8.22 0 0 1 1.87.62 2.42 2.42 0 0 1 .95.87 2.71 2.71 0 0 1-.07 2.75 2.45 2.45 0 0 1-1.16 1 4.84 4.84 0 0 1-1.87.31 3.71 3.71 0 0 1-2.5-.75 3.25 3.25 0 0 1-.99-2.23zm9.15-5.8h3.17a6.7 6.7 0 0 1 1.64.16 2.9 2.9 0 0 1 1.29.8 3.57 3.57 0 0 1 .82 1.39 6.25 6.25 0 0 1 .28 2 5.61 5.61 0 0 1-.26 1.83 3.68 3.68 0 0 1-.92 1.51 3.05 3.05 0 0 1-1.22.69 5.24 5.24 0 0 1-1.53.18h-3.27zm1.74 1.45v5.69h1.29a4.4 4.4 0 0 0 1-.08 1.56 1.56 0 0 0 .7-.36 1.74 1.74 0 0 0 .46-.83 5.84 5.84 0 0 0 .17-1.57 5.47 5.47 0 0 0-.17-1.53 2 2 0 0 0-.5-.83 1.64 1.64 0 0 0-.8-.4 7.17 7.17 0 0 0-1.42-.09zm100.49-57.61v-8.59H725v3.38h3.4v-3.38h1.74v8.59h-1.74v-3.76H725v3.76zm9.37-8.59h1.73v4.65a8.34 8.34 0 0 0 .07 1.43 1.35 1.35 0 0 0 .53.85 1.86 1.86 0 0 0 1.14.32 1.78 1.78 0 0 0 1.12-.3 1.19 1.19 0 0 0 .45-.74 10.07 10.07 0 0 0 .07-1.46v-4.75h1.74v4.51a11.84 11.84 0 0 1-.14 2.18 2.48 2.48 0 0 1-.52 1.08 2.51 2.51 0 0 1-1 .7 4.29 4.29 0 0 1-1.65.26 4.73 4.73 0 0 1-1.87-.28 2.79 2.79 0 0 1-1-.74 2.44 2.44 0 0 1-.48-1 10 10 0 0 1-.17-2.18zm11.35 8.59v-7.14h-2.55v-1.45h6.83v1.45h-2.55v7.14zm8 0v-7.14h-2.55v-1.45h6.83v1.45h-2.55v7.14zm5.58-4.25a5.52 5.52 0 0 1 .39-2.2 3.91 3.91 0 0 1 .8-1.18 3.53 3.53 0 0 1 1.11-.77 4.63 4.63 0 0 1 1.85-.34 4 4 0 0 1 3 1.18 5.26 5.26 0 0 1 0 6.53 4.52 4.52 0 0 1-6.07 0 4.41 4.41 0 0 1-1.08-3.22zm1.78-.05a3.21 3.21 0 0 0 .68 2.21 2.2 2.2 0 0 0 1.71.75 2.17 2.17 0 0 0 1.7-.75 3.28 3.28 0 0 0 .67-2.24 3.23 3.23 0 0 0-.65-2.2 2.18 2.18 0 0 0-1.72-.73 2.21 2.21 0 0 0-1.73.74 3.24 3.24 0 0 0-.66 2.18zm-24.87 18.7v-8.59h1.74v8.59zm3.67-2.8l1.69-.16a2.09 2.09 0 0 0 .62 1.25 1.89 1.89 0 0 0 1.25.39 1.94 1.94 0 0 0 1.27-.35 1.06 1.06 0 0 0 .42-.83.78.78 0 0 0-.18-.52 1.53 1.53 0 0 0-.62-.37c-.21-.07-.67-.2-1.39-.38a4.84 4.84 0 0 1-2-.84 2.24 2.24 0 0 1-.79-1.73 2.27 2.27 0 0 1 .37-1.23 2.35 2.35 0 0 1 1.08-.87 4.26 4.26 0 0 1 1.69-.3 3.63 3.63 0 0 1 2.43.71 2.48 2.48 0 0 1 .86 1.89l-1.74.08a1.46 1.46 0 0 0-.47-1 1.72 1.72 0 0 0-1.1-.29 2 2 0 0 0-1.19.31.62.62 0 0 0-.27.53.66.66 0 0 0 .26.52 4.64 4.64 0 0 0 1.59.58 8.12 8.12 0 0 1 1.87.61 2.45 2.45 0 0 1 .95.88 2.52 2.52 0 0 1 .34 1.36 2.48 2.48 0 0 1-.41 1.39 2.45 2.45 0 0 1-1.16 1 5 5 0 0 1-1.86.31 3.76 3.76 0 0 1-2.51-.75 3.3 3.3 0 0 1-1-2.19zm9.16-5.79h3.17a6.15 6.15 0 0 1 1.63.16 2.86 2.86 0 0 1 1.3.79 3.77 3.77 0 0 1 .82 1.39 6.3 6.3 0 0 1 .28 2 5.81 5.81 0 0 1-.26 1.83 3.94 3.94 0 0 1-.92 1.52 3.11 3.11 0 0 1-1.22.68 5 5 0 0 1-1.54.19h-3.26zm1.73 1.45v5.69h1.3a5.15 5.15 0 0 0 1-.08 1.61 1.61 0 0 0 .7-.36 1.88 1.88 0 0 0 .45-.83 5.45 5.45 0 0 0 .18-1.57 5 5 0 0 0-.18-1.53 2 2 0 0 0-.49-.83 1.65 1.65 0 0 0-.8-.41 8.54 8.54 0 0 0-1.43-.08zm-358.86 12.49v-8.52h1.74v7.08h4.31v1.44zm8 0v-8.59h6.37v1.5h-4.63v1.9h4.31v1.45h-4.31v2.34h4.8v1.44zm16.47 0h-1.88l-.75-1.95h-3.44l-.7 1.95h-1.84l3.34-8.59h1.83zm-3.19-3.4l-1.18-3.18-1.16 3.18zm4.85 3.4v-8.59H418l3.52 5.74v-5.74h1.61v8.59h-1.73l-3.47-5.6v5.6zm9.36-8.59h3.17a6.16 6.16 0 0 1 1.64.17 2.88 2.88 0 0 1 1.29.79 3.64 3.64 0 0 1 .82 1.39 6.23 6.23 0 0 1 .29 2 5.52 5.52 0 0 1-.27 1.83 3.78 3.78 0 0 1-.92 1.52 3 3 0 0 1-1.22.68 5.24 5.24 0 0 1-1.53.18h-3.27zm1.74 1.46v5.69h1.29a4.27 4.27 0 0 0 1.05-.09 1.65 1.65 0 0 0 .7-.35 1.85 1.85 0 0 0 .46-.83 6 6 0 0 0 .17-1.58 5.47 5.47 0 0 0-.17-1.53 1.94 1.94 0 0 0-.5-.83 1.6 1.6 0 0 0-.8-.4 7.36 7.36 0 0 0-1.42-.08zm7.66 7.13v-8.59h6.37v1.5h-4.64v1.9h4.31v1.45h-4.31v2.34h4.8v1.44zm8.73 0v-8.59h3.65a6.43 6.43 0 0 1 2 .23 2 2 0 0 1 1 .83 2.44 2.44 0 0 1 .37 1.35 2.29 2.29 0 0 1-.57 1.6 2.72 2.72 0 0 1-1.7.79 3.94 3.94 0 0 1 .93.72 8.94 8.94 0 0 1 1 1.4l1 1.67h-2.08l-1.25-1.87a12.47 12.47 0 0 0-.91-1.26 1.47 1.47 0 0 0-.53-.36 3 3 0 0 0-.87-.09h-.35v3.58zm1.73-4.95h1.28a6.47 6.47 0 0 0 1.56-.11 1 1 0 0 0 .49-.36 1.13 1.13 0 0 0 .13-.67 1 1 0 0 0-.88-1h-2.62zm11.65 4.95v-8.59h1.73v8.59zm3.66-2.79l1.69-.17a2 2 0 0 0 .62 1.25 1.85 1.85 0 0 0 1.26.4 2 2 0 0 0 1.26-.35 1.08 1.08 0 0 0 .42-.83.76.76 0 0 0-.17-.52 1.41 1.41 0 0 0-.63-.37c-.2-.07-.66-.2-1.39-.38a4.58 4.58 0 0 1-2-.85 2.22 2.22 0 0 1-.79-1.73 2.18 2.18 0 0 1 .37-1.22 2.21 2.21 0 0 1 1.07-.87 4.29 4.29 0 0 1 1.69-.3 3.56 3.56 0 0 1 2.43.71 2.45 2.45 0 0 1 .86 1.89l-1.73.07a1.49 1.49 0 0 0-.48-.95 1.76 1.76 0 0 0-1.1-.29 2 2 0 0 0-1.18.31.65.65 0 0 0-.28.54.68.68 0 0 0 .26.52 4.68 4.68 0 0 0 1.6.57 8.75 8.75 0 0 1 1.87.62 2.42 2.42 0 0 1 .95.87 2.65 2.65 0 0 1 .34 1.37 2.56 2.56 0 0 1-.41 1.38 2.45 2.45 0 0 1-1.16 1 4.84 4.84 0 0 1-1.87.31 3.71 3.71 0 0 1-2.5-.75 3.31 3.31 0 0 1-1-2.23zm9.15-5.8h3.17a6.16 6.16 0 0 1 1.64.17 2.88 2.88 0 0 1 1.29.79 3.77 3.77 0 0 1 .82 1.39 6.25 6.25 0 0 1 .28 2 5.53 5.53 0 0 1-.26 1.83 3.78 3.78 0 0 1-.92 1.52 3 3 0 0 1-1.22.68 5.24 5.24 0 0 1-1.53.18H470zm1.74 1.46v5.69H473a4.27 4.27 0 0 0 1-.09 1.65 1.65 0 0 0 .7-.35 1.75 1.75 0 0 0 .45-.83 5.53 5.53 0 0 0 .18-1.58 5.06 5.06 0 0 0-.18-1.53 1.93 1.93 0 0 0-.49-.83 1.64 1.64 0 0 0-.8-.4 7.42 7.42 0 0 0-1.42-.08z"/>
  <path id="lake-travis-isd" class="cls-3" d="M465.28 515.71l11-21.85c-3.9-3.06-2.21-14.44-2.21-14.44a38 38 0 0 0-2-6.69c-1.42-3.16-3.32-7.43-6.95-9.8s-8.38.79-10.28 1.9-11.86 8.54-18.66 9.33a43 43 0 0 0-13.12 4.11s-16.13 13.91-19.14 14.23-9-1.27-11.7-5.06 0-7.91 0-7.91 11.55-13.6 15-16.6 3-7.91 3.17-9.17-1-27.2-1-27.2l12.61-8.23-1.27-12-13.44-24.67-1.19-3.07-.39-.25s-12.65-7.87-21.5-5.83-13.49 9.63-12.65 13.42 6.75 11.81 10.12 15.6 7.17 8.86 6.32 12.23-3.37 5.91-10.12 6.33-19-2.11-21.5 0-12.12 17.29-16.6 19-19.66 5.48-24.3 3.38 0-8.86 5.06-14.34 14.33-13.49 17.29-14.34 7.08-7.79 6.07-10.43-19.57-4.75-19.57-4.75l-20.66-2.11s-8.43-.42-6.32-10.54 17.28-23.4 17.28-23.4 10.12-4.85 13.08-6.11 2.1-13.5-.43-19.4c-1.69-3.94-5.61-7.61-10.43-10.54 0 0-6.64-.63-10.12 7.91s-6.64 25-11.39 29.72S278.85 379 278.85 379s-1.9 3.16-7.91 3.47-7.27-1.89-7.27-1.89-2.61-13.92-6.05-15.5-5.34-5.06-6.92-3.16 1.9 11.08 1.9 11.08l-6.33 5.63.64 9.52s9.09 2.81 10.71 4.08 1.3 6.32 3.2 7.9 8.54 7 7.91 10.44-1.58 9.8-5.69 11.39-9.49 3.79-13.29 2.21-9.48-6.64-10.43-7-11.13-9.8-11.13-9.8c1.58 1.58-.64 3.48 0 7.9s1.89 12.65 1.89 14.87-2.21 7-4.74 7.43c-1.46.27-3.85 1-5.62 1.52l1 15.72s1.69 2.95 3.59 1.68a34.53 34.53 0 0 0 4.22-3.58l12 8.64-8.64 6.75 2.74 14.12-20.24 13.08 104.15 84.22h.11l5.48-.74-4.43-4.74s1.26-2.11 3.27-2.21 3.9 0 3.9 0-.21-5.17 1.58-5.17a23.71 23.71 0 0 0 3.9-.42l.84-6s2.64.74 3.06 0-1.9-4.85-1.79-5.27.31-1.05 2.53-1.05h5.27s-.72-4.72 1.64-4.72 2.58 2.4 2.58 3 .42 4.11 1.47 4.11 2.64-2 3.06-3.27 1.68-2.74 2.53-2.53 2.42 5.06 3.05 5.48a4.44 4.44 0 0 0 3.17.22c1.16-.32.84-5.8 2.74-6a36.19 36.19 0 0 0 4.74-1s-.21-3.93 3.16-4.14 8.33 0 8.33 0 3.38 1.79 4.32 1.06.11-3.8 1.59-4.43 2.84 1.26 4.11 1.68 3.26-3.37 4.74-3.37 2.85 1.79 3.58 1.37.95-5.69 2.22-7.27 2.11-1.48 2.63-1.27 1.27 1.27 1.37 3.48.64 3.16 1.69 3 1.48-6.11 1.05-7.9-3.53-2.62-5.53-2.62-3.38-2.21-3.48-4 .63-3 1.47-2.43.53 2.32 2.32 3.27a13.3 13.3 0 0 0 4.33 1.16l2.32-2.32-1.69-7.38-1.37-2.74 3.58-4.43 4.43 2 11.91 10.43-4.11 5.69s.32 3.59 3.27 3.06 5.37-5.06 6.43-5.27 2.42.21 3.69 2.32 2.63 5.38 3.27 5.69 3.05 1.9 3.26-.52-1.16-7.28-.42-8.33 2-3.06 4.75-3.06 6.32-.11 6.32-.11-1-7.59.42-8.11a4.19 4.19 0 0 1 3.16.52s.74 6.54 1.38 7.81 3.47.94 3.47.94 1.06-6.85 2.43-7.59 3.36-.66 3.64.11z"/>
  <path class="cls-7" d="M302.14 479.56V471h1.74v7.07h4.31v1.45zm15.75 0H316l-.75-2h-3.44l-.7 2h-1.84l3.34-8.59h1.83zm-3.19-3.4l-1.18-3.16-1.16 3.19zm4.86 3.4V471h1.73v3.81l3.51-3.81h2.33l-3.24 3.34 3.41 5.25h-2.24l-2.36-4-1.41 1.41v2.6zm9.36 0V471h6.37v1.45h-4.64v1.9H335v1.45h-4.32v2.34h4.8v1.45zM285 494v-7.14h-2.55v-1.45h6.83v1.45h-2.55V494zm6.1 0v-8.59h3.65a6.06 6.06 0 0 1 2 .23 2 2 0 0 1 1 .82 2.47 2.47 0 0 1 .38 1.35 2.29 2.29 0 0 1-.57 1.6 2.75 2.75 0 0 1-1.7.79 4.12 4.12 0 0 1 .93.73 10.26 10.26 0 0 1 1 1.39l1 1.68h-2.07l-1.25-1.87a12.54 12.54 0 0 0-.92-1.27 1.29 1.29 0 0 0-.52-.35 2.63 2.63 0 0 0-.87-.1h-.35V494zm1.74-5h1.28a6.59 6.59 0 0 0 1.56-.11.92.92 0 0 0 .48-.36 1.1 1.1 0 0 0 .18-.64 1.08 1.08 0 0 0-.23-.71 1.07 1.07 0 0 0-.66-.33h-2.61zm15.39 5h-1.89l-.75-2h-3.43l-.71 2h-1.84l3.34-8.59h1.84zm-3.2-3.4l-1.18-3.19-1.16 3.19zm6.14 3.4l-3.07-8.59h1.9l2.17 6.35 2.11-6.35h1.84L313 494zm6.48 0v-8.59h1.73V494zm3.67-2.84L323 491a2 2 0 0 0 .62 1.24 1.85 1.85 0 0 0 1.26.4 2 2 0 0 0 1.26-.35 1.07 1.07 0 0 0 .43-.83.78.78 0 0 0-.18-.52 1.41 1.41 0 0 0-.63-.37c-.2-.07-.66-.2-1.39-.38a4.58 4.58 0 0 1-1.95-.85 2.25 2.25 0 0 1-.42-2.95 2.33 2.33 0 0 1 1.07-.87 4.29 4.29 0 0 1 1.69-.3 3.66 3.66 0 0 1 2.44.71 2.48 2.48 0 0 1 .85 1.89l-1.73.08a1.52 1.52 0 0 0-.48-1 1.76 1.76 0 0 0-1.1-.29 2 2 0 0 0-1.18.32.63.63 0 0 0-.28.53.66.66 0 0 0 .26.52 4.68 4.68 0 0 0 1.6.57 8.75 8.75 0 0 1 1.87.62 2.36 2.36 0 0 1 1.29 2.24 2.56 2.56 0 0 1-.41 1.39 2.38 2.38 0 0 1-1.16 1 4.83 4.83 0 0 1-1.87.32 3.66 3.66 0 0 1-2.5-.76 3.25 3.25 0 0 1-1.04-2.2zm13.16 2.84v-8.59h1.73V494zm3.67-2.84l1.68-.16a2.09 2.09 0 0 0 .62 1.24 1.85 1.85 0 0 0 1.26.4 2 2 0 0 0 1.26-.35 1 1 0 0 0 .43-.83.78.78 0 0 0-.18-.52 1.41 1.41 0 0 0-.63-.37c-.2-.07-.66-.2-1.38-.38a4.64 4.64 0 0 1-2-.85 2.25 2.25 0 0 1-.42-2.95 2.33 2.33 0 0 1 1.07-.87 4.29 4.29 0 0 1 1.69-.3 3.66 3.66 0 0 1 2.44.71 2.52 2.52 0 0 1 .86 1.89l-1.74.08a1.47 1.47 0 0 0-.48-1 1.76 1.76 0 0 0-1.1-.29 2 2 0 0 0-1.18.32.62.62 0 0 0-.27.53.65.65 0 0 0 .25.52 4.68 4.68 0 0 0 1.6.57 8.75 8.75 0 0 1 1.87.62 2.36 2.36 0 0 1 1.29 2.24 2.56 2.56 0 0 1-.41 1.39 2.38 2.38 0 0 1-1.16 1 4.83 4.83 0 0 1-1.87.32 3.68 3.68 0 0 1-2.5-.76 3.25 3.25 0 0 1-1-2.2zm9.15-5.79h3.17a6.24 6.24 0 0 1 1.64.16 2.88 2.88 0 0 1 1.29.79 3.64 3.64 0 0 1 .82 1.39 6.27 6.27 0 0 1 .29 2 5.52 5.52 0 0 1-.27 1.83 3.72 3.72 0 0 1-.92 1.52 3 3 0 0 1-1.22.68 5.2 5.2 0 0 1-1.53.19h-3.27zm1.74 1.45v5.69h1.29a5 5 0 0 0 1.05-.08 1.56 1.56 0 0 0 .7-.36 1.85 1.85 0 0 0 .46-.83 5.94 5.94 0 0 0 .17-1.57 5.37 5.37 0 0 0-.17-1.53 1.92 1.92 0 0 0-.5-.84 1.68 1.68 0 0 0-.8-.4 8.31 8.31 0 0 0-1.42-.08zm-3.7-146.11v-8.52h1.74v7.07h4.31v1.45zm15.75 0h-1.88l-.75-1.95H355l-.71 1.95h-1.84l3.35-8.59h1.83zm-3.19-3.4l-1.18-3.19-1.16 3.19zm8.83.24v-1.45h3.74v3.42a4.84 4.84 0 0 1-1.58.93 5.71 5.71 0 0 1-2.1.4 4.78 4.78 0 0 1-2.35-.56 3.62 3.62 0 0 1-1.5-1.62 5.16 5.16 0 0 1-.51-2.29A4.87 4.87 0 0 1 363 334a3.73 3.73 0 0 1 1.64-1.6 4.39 4.39 0 0 1 2.06-.43 4.08 4.08 0 0 1 2.5.67 3.09 3.09 0 0 1 1.16 1.86l-1.73.32a1.82 1.82 0 0 0-.68-1 2 2 0 0 0-1.25-.37 2.36 2.36 0 0 0-1.81.72 3 3 0 0 0-.67 2.14 3.4 3.4 0 0 0 .68 2.3 2.26 2.26 0 0 0 1.78.76 3 3 0 0 0 1.09-.21 4 4 0 0 0 .94-.52v-1.09zm5.7-1.09a5.51 5.51 0 0 1 .4-2.2 3.91 3.91 0 0 1 .8-1.18 3.53 3.53 0 0 1 1.11-.77 4.63 4.63 0 0 1 1.85-.34 4 4 0 0 1 3 1.18 5.26 5.26 0 0 1 0 6.53 4.52 4.52 0 0 1-6.07 0 4.4 4.4 0 0 1-1.09-3.22zm1.79 0a3.21 3.21 0 0 0 .68 2.21 2.2 2.2 0 0 0 1.71.75 2.17 2.17 0 0 0 1.7-.75 3.28 3.28 0 0 0 .66-2.24 3.23 3.23 0 0 0-.64-2.2 2.39 2.39 0 0 0-3.45 0 3.24 3.24 0 0 0-.66 2.18zm-39.87 18.65l-3.07-8.59h1.88l2.17 6.35 2.11-6.35h1.84l-3.08 8.59zm6.48 0v-8.59h1.73v8.59zm3.67-2.8l1.68-.16a2.15 2.15 0 0 0 .62 1.25 2.33 2.33 0 0 0 2.52 0 1 1 0 0 0 .43-.83.78.78 0 0 0-.18-.52 1.51 1.51 0 0 0-.63-.37c-.2-.07-.66-.2-1.38-.38a4.78 4.78 0 0 1-2-.84 2.24 2.24 0 0 1-.79-1.73 2.19 2.19 0 0 1 .37-1.23 2.38 2.38 0 0 1 1.07-.87 4.29 4.29 0 0 1 1.69-.3 3.66 3.66 0 0 1 2.44.71 2.52 2.52 0 0 1 .86 1.89l-1.74.08a1.42 1.42 0 0 0-.48-.95 1.7 1.7 0 0 0-1.1-.29 2 2 0 0 0-1.18.31.62.62 0 0 0-.27.53.65.65 0 0 0 .25.52 4.63 4.63 0 0 0 1.6.58 8.12 8.12 0 0 1 1.87.61 2.36 2.36 0 0 1 1.29 2.24 2.56 2.56 0 0 1-.41 1.39 2.45 2.45 0 0 1-1.16 1 5 5 0 0 1-1.87.31 3.73 3.73 0 0 1-2.5-.75 3.3 3.3 0 0 1-1-2.2zm11.09 2.8V348h-2.54v-1.45h6.82V348h-2.54v7.14zm12.98 0h-1.89l-.75-1.95h-3.43l-.71 1.95H360l3.34-8.59h1.84zm-3.2-3.4l-1.18-3.19-1.19 3.19zm8.39 3.4v-8.59h1.74v8.59zm3.67-2.8l1.69-.16a2.08 2.08 0 0 0 .61 1.25 1.92 1.92 0 0 0 1.26.39 1.89 1.89 0 0 0 1.26-.35 1 1 0 0 0 .43-.83.78.78 0 0 0-.18-.52 1.53 1.53 0 0 0-.62-.37c-.21-.07-.67-.2-1.39-.38a4.84 4.84 0 0 1-2-.84 2.24 2.24 0 0 1-.79-1.73 2.19 2.19 0 0 1 .37-1.23 2.38 2.38 0 0 1 1.07-.87 4.29 4.29 0 0 1 1.69-.3 3.66 3.66 0 0 1 2.44.71 2.52 2.52 0 0 1 .86 1.89l-1.74.08a1.46 1.46 0 0 0-.47-.95 1.72 1.72 0 0 0-1.1-.29 2 2 0 0 0-1.19.31.62.62 0 0 0-.27.53.63.63 0 0 0 .26.52 4.55 4.55 0 0 0 1.59.58 8.12 8.12 0 0 1 1.87.61 2.45 2.45 0 0 1 .95.88 2.52 2.52 0 0 1 .34 1.36 2.48 2.48 0 0 1-.37 1.4 2.45 2.45 0 0 1-1.16 1 5 5 0 0 1-1.87.31 3.73 3.73 0 0 1-2.5-.75 3.3 3.3 0 0 1-1.04-2.25zm9.16-5.79h3.17a6.15 6.15 0 0 1 1.63.16 2.92 2.92 0 0 1 1.3.79 3.77 3.77 0 0 1 .82 1.39 6.58 6.58 0 0 1 .28 2 5.52 5.52 0 0 1-.27 1.83 3.72 3.72 0 0 1-.92 1.52 3.13 3.13 0 0 1-1.21.69 5.37 5.37 0 0 1-1.54.18h-3.26zm1.73 1.45v5.69h1.3a5 5 0 0 0 1-.08 1.51 1.51 0 0 0 .7-.36 1.79 1.79 0 0 0 .46-.83 5.5 5.5 0 0 0 .17-1.57 5 5 0 0 0-.17-1.53 2 2 0 0 0-.49-.83 1.64 1.64 0 0 0-.81-.41 8.31 8.31 0 0 0-1.42-.08z"/>
  <path id="earnes-isd" class="cls-3" d="M467.73 523.16c.32 4.64 3.59 10.86 3.59 11.28s-2.11 9.28-.21 10.65 5.16 1.48 8 1 5.59 1 6.53 2.64a17.08 17.08 0 0 0 3.17 3.58l4.53.32.1 10.23 6.22 6a11.47 11.47 0 0 1 3.27 3.17c.95 1.68 1.69 6.43 1.69 6.43l1.16 4.85 3.48-.74 1.26-1.69s2.32-2.42 3.59-2.42a38 38 0 0 1 4.74.74s2.85 1.79 3.9 1.89 3.16-2.74 2-4.64-5.58-1.68-5.58-1.68l-.64-4.85s6.22-2.22 7.28-3.16 3-7.07 3-7.07l6.54-4.63s.42-7.17-.74-8.23-10.86-6.64-11.59-8.43-4.22-9.28-4.22-9.28 2.32-5.37 4.43-5.9a38.71 38.71 0 0 1 6.22-.63 54.62 54.62 0 0 0 4.74-9.38c1.79-4.85 4-12.76 2.21-18s-6.74-16.87-9.38-19.92-9.59-9.6-11.8-10.12-4.64-1.06-6.54.63-11.81 14.76-12.54 15.92-5.8 9.8-7.59 11.06c0 0-7.58 4.11-11.49 1.06l-11 21.85v.08a23.62 23.62 0 0 1 1.67 7.39zM213.62 400.48v.01-.01z"/>
  <path class="cls-7" d="M481 513.89v-8.59h6.37v1.45h-4.64v1.91h4.32v1.44h-4.32v2.34h4.8v1.45zm16.5 0h-1.89l-.75-1.95h-3.43l-.71 1.95h-1.84l3.34-8.59h1.84zm-3.19-3.4l-1.19-3.19-1.12 3.19zm4.85 3.4v-8.59h1.68l3.52 5.73v-5.73H506v8.59h-1.74l-3.46-5.6v5.6zm9.36 0v-8.59h6.37v1.45h-4.63v1.91h4.31v1.44h-4.31v2.34h4.8v1.45zm8.29-2.8l1.69-.16a2.08 2.08 0 0 0 .61 1.25 2.33 2.33 0 0 0 2.52 0 1 1 0 0 0 .43-.83.8.8 0 0 0-.18-.52 1.53 1.53 0 0 0-.62-.37c-.21-.07-.67-.19-1.39-.37a4.83 4.83 0 0 1-2-.85 2.24 2.24 0 0 1-.79-1.73 2.19 2.19 0 0 1 .37-1.23 2.38 2.38 0 0 1 1.07-.87 4.29 4.29 0 0 1 1.69-.3 3.66 3.66 0 0 1 2.44.71 2.52 2.52 0 0 1 .86 1.89l-1.74.08a1.42 1.42 0 0 0-.48-.95 1.69 1.69 0 0 0-1.09-.29 2 2 0 0 0-1.19.31.62.62 0 0 0-.27.53.63.63 0 0 0 .26.52 4.35 4.35 0 0 0 1.59.58 8.64 8.64 0 0 1 1.87.61 2.45 2.45 0 0 1 1 .88 2.53 2.53 0 0 1 .34 1.37 2.53 2.53 0 0 1-1.57 2.34 4.84 4.84 0 0 1-1.87.31 3.73 3.73 0 0 1-2.5-.75 3.3 3.3 0 0 1-1.05-2.16zm-24.44 17.2v-8.59h1.73v8.59zm3.63-2.8l1.69-.16a2.09 2.09 0 0 0 .62 1.25 1.9 1.9 0 0 0 1.26.39 1.93 1.93 0 0 0 1.26-.35 1.06 1.06 0 0 0 .42-.83.8.8 0 0 0-.18-.52 1.46 1.46 0 0 0-.62-.37c-.2-.07-.67-.19-1.39-.37a4.83 4.83 0 0 1-2-.85 2.27 2.27 0 0 1-.79-1.73 2.2 2.2 0 0 1 .38-1.23 2.28 2.28 0 0 1 1.07-.87 4.26 4.26 0 0 1 1.69-.3 3.61 3.61 0 0 1 2.43.71 2.48 2.48 0 0 1 .86 1.89l-1.73.08a1.51 1.51 0 0 0-.48-1 1.72 1.72 0 0 0-1.1-.29 2 2 0 0 0-1.18.31.61.61 0 0 0-.28.53.66.66 0 0 0 .26.52 4.43 4.43 0 0 0 1.59.58 8.45 8.45 0 0 1 1.87.61 2.38 2.38 0 0 1 .95.88 2.68 2.68 0 0 1-.06 2.75 2.5 2.5 0 0 1-1.16 1 4.88 4.88 0 0 1-1.87.31 3.71 3.71 0 0 1-2.5-.75 3.31 3.31 0 0 1-1.01-2.19zm9.19-5.79h3.17a6.15 6.15 0 0 1 1.63.16 2.86 2.86 0 0 1 1.3.79 3.85 3.85 0 0 1 .82 1.39 6.3 6.3 0 0 1 .28 2 5.81 5.81 0 0 1-.26 1.83 3.83 3.83 0 0 1-.92 1.52 3.18 3.18 0 0 1-1.22.69 5.32 5.32 0 0 1-1.54.18h-3.26zm1.73 1.45v5.69h1.3a5.15 5.15 0 0 0 1-.08 1.61 1.61 0 0 0 .7-.36 1.79 1.79 0 0 0 .45-.83 5.45 5.45 0 0 0 .18-1.57 5 5 0 0 0-.18-1.53 1.87 1.87 0 0 0-.49-.83 1.65 1.65 0 0 0-.8-.41 8.46 8.46 0 0 0-1.43-.08z"/>
</svg>
