<svg id="Layer_1" xmlns="http://www.w3.org/2000/svg" viewBox="0 0 826.3 1038.4" preserveAspectRatio="XMinYMin meet">
  <style>
    .st0{fill:#848487}.st0,.st1,.st2,.st3{stroke:#e3e2e2;stroke-linejoin:round;stroke-miterlimit:10}.st1{fill:#c2c1c2}.st2{fill:#969698}.st3{fill:#b0afb1}.st4{fill:#fff}.st5{font-family:&apos;Arial-BoldMT&apos;}.st6{font-size:11.5px}
  </style>
  <path id="dripping-springs" class="st0" d="M200.5 641.7L69 542.5l25.3-15.7-7-13.9 9.3-6.5-12-3-5 4.7-10.7-7-12 8-30.7-19L13 507.7l-12.7 42v239.7s24.3 1.3 35.3 4 17.3 11.3 21.7 18S70 823.7 70 823.7l13.3.3 2.7-2s2.3-5 4.3-5 3.7 3.3 6.3 6c2.7 2.7 5 2 5 2l16 2.3c.7-1 5-5.3 8.3-7 3.3-1.7 10-2 10-2s27 .3 30.3 0 2.7-5 2.3-7.3c-.3-2.3-5.7-5.7-10.7-7.2s-31.3-2.2-31.3-2.2l.3-9.7s7.7-7.7 14-12.3c6.3-4.7 23.3-8 27.7-7.7 4.3.3 7.1 3 7.1 3s.2-6 0-9.7c-.2-3.7 3.2-7.7 7.2-10.3 4-2.7 10.3-3 10.3-3l.7 11.5h39l1.3 13.5h27.3l.7-27 28.7 4 6.5-41.5-49.7-35.4h-.1l-47-35.4"/>
  <path id="georgetown" class="st1" d="M384.5 78.5l39.3-12.7s-5.7-24.7-9.7-29.7l7.7-5 2-17.7h55.3l20 21.3s16.7 0 19 2.7c2.3 2.7-2 8.5-2 8.5s0 7.8 2.7 11.8c2.6 4 10.3 14.7 12 18.3 1.7 3.7 8.7 21 8.7 21l42-9.7s13-8 12.3-16.7c0 0 5.3-4 12.7-2.7 7.3 1.3 10.7 5.7 10.7 5.7l16-6.7 29-11.8-9.3-23.2 50-14.7 14 23.3 10.7-.3v7l9.7 7.8-4 43.5-13 5.7 7.3 29.7 9.7-1.7 8.7-9.7s1.3 7 5.3 11.3c4 4.3 19.3 17.7 19.3 17.7l17-3s8.7-2 11.3 3c2.7 5 12 33 12 33l-21.7 9.3s-16.7.3-20.3-2c-3.7-2.3-19.3-2.3-22.7-2.3-3.3 0-12.7-3-18.3-4-5.7-1-21.3-2-25-1.7-3.7.3-19.7 8.3-19.7 8.3l10.3 32.7-22.3 9.3-.3 6.3s.7 4.3-3.7 3.7c-4.3-.7-7.7-4.3-7.7-4.3l-11 10.7-4.7-10.3-22.3 10.3-4.3-8-32.3 9.3-2 6.7-18.3 3.7-9.3-5-8 8-4.7-2.7-45 11.3-25.7-91 24.7-12.7-8.7-26.7-47.3 11-5-15.3-35.7 6.7 2-12.3s-5.3-5-5.7-9.7c-.3-4.7 6.7-14.7 6.7-14.7l-18.4-30.6z"/>
  <path id="hutto" class="st2" d="M789.3 194.2s-16.7.3-20.3-2c-3.7-2.3-19.3-2.3-22.7-2.3-3.3 0-12.7-3-18.3-4s-21.3-2-25-1.7c-3.7.3-19.7 8.3-19.7 8.3l10.3 32.7-22.3 9.3-.3 6.3s.7 4.3-3.7 3.7c-4.3-.7-7.7-4.3-7.7-4.3l-11 10.7-1.5-3.4 14.5 34.7h-11.3v26.3l15.7 2.3v15.7l7 3v27l8-5.7s6.7-1.3 8.3-1.3c1.7 0 9-.7 9-.7l31.3 31.7 4.3-4.3 13 8 16.7-14.7 24 14.7 7.7-31.3 7.7-3.3v-23.3l-6-2.7-5 3.7-4.3-1L795 315l6-32s-5-6.3-9.3-10.7c-4.3-4.3-13-19.7-13-19.7l24.3-14-13.7-44.4z"/>
  <path id="northwest" class="st2" d="M500.8 273.4l-3 .8-25.7-91 24.7-12.7-8.7-26.7-47.3 11-5-15.3-35.7 6.7 2-12.3s-5.3-5-5.7-9.7c-.3-4.7 6.7-14.7 6.7-14.7l-18.3-31 39.3-12.7s-1.3-5.8-3.2-12.3l-40.2 12.3-5.3-10-12 3.3-15.7-45.7-19 12-15-25-33.3 6.7 5.7 16.7-11.3 3.7-2.3-8h-11.3l-6.3-10-90.3 182.3s7 7.7 8.3 9c1.3 1.3 3 7.3 3 7.3s8-3.3 13-4.7 18.7-2.3 18.7-2.3l3.3-9 16 18.3s4.3-5 7.3-6.7c3-1.7 5-2.7 9-2.7s14-4 14-4l8.7-5.7s7 11.7 17.3 18.7 22.7 5.3 22.7 5.3V239l3.7 6.7-10.7 13.7 2 8.7s8.7-5 10.3-6 9-1.7 9-1.7l3.7-4 7 8 8.8 3.3 5.5 13 23.3 10-7 28 13 12.3-3.7 21 19 20.7-5 27.7-21.7 11.3s-.3 36.3-.3 37.3 14.3 12.7 14.3 12.7c2.3-1 16-17.7 17.3-19.7 1.3-2 20-27.7 23.3-32.3 3.3-4.7 24.3-19 25.3-18.7 1 .3 43.7-12.7 43.7-12.7v-4.7l-15.3-13.3-1.3-43.7-9.7-12.3 42-14.7-1.6-16.2z"/>
  <path id="lake-north" class="st0" d="M363.1 449.2c0-1 .3-37.3.3-37.3l21.7-11.3 5-27.7-19-20.7 3.7-21-13-12.3 7-28-23.3-10-5.5-13-8.8-3.3-7-8-3.7 4s-7.3.7-9 1.7-10.3 6-10.3 6l-2-8.7 10.7-13.7-3.7-6.7v-23.7s-12.3 1.7-22.7-5.3-17.3-18.7-17.3-18.7l-8.7 5.7s-10 4-14 4-6 1-9 2.7c-3 1.7-7.3 6.7-7.3 6.7l-16-18.3-3.3 9s-13.7 1-18.7 2.3-13 4.7-13 4.7-1.7-6-3-7.3c-1.3-1.3-8.3-9-8.3-9l-76 155.7s14-1.7 17 0 .7 8.7-.3 11.7 1.3 16 6 18.7c4.7 2.7 17.7.7 25.3 2.7 7.7 2 3.3 21.7 4.7 28 1.3 6.3 7.7 9.7 10 9.7s10.7-11.3 10.7-11.3 18.3-27.3 24.3-34c6-6.7 17.3-4 20-1.3 2.7 2.7 10 24.3.3 27.7-9.7 3.3-33.7 21.3-37.7 25-4 3.7 2.3 11.7 3.3 12 1 .3 52.7 5.7 55 7 2.3 1.3-16 17.7-19.3 21.7s-10 18.7-9 23.7 21.3-2.3 25.7-4.7c4.3-2.3 26.3-14 32-15.7 5.7-1.7 17.7-1.7 21.3-5 3.7-3.3-1.7-17.7-3.7-24.3-2-6.7 1.3-16.3 2.3-19.3s17-6.7 21-6.3c4 .3 13.7 18.3 13.7 18.3s16.7 22.3 14 24c-2.7 1.7-13.3 25.3-13.3 25.3 4 1 23.3-1.3 34-3.7 10.7-2.3 31.3-15.3 31.3-15.3s-14.4-12.1-14.4-13.1z"/>
  <path id="northeast" class="st0" d="M791.5 369.6l-3.6 14.6-24-14.7-16.7 14.7-13-8-4.3 4.3-31.3-31.7s-7.3.7-9 .7c-1.7 0-8.3 1.3-8.3 1.3l-8 5.7-7.4-3-9 16.1-48 11.6-10.8-8.7-10.8 2.7c4 12.7 2 44 2 44s-16 73.7-17.7 82c-1.7 8.3-16 44-16 44s23.7 14.3 27.3 15.3c3.7 1 34.3 0 47.3-.3s37-6.7 37-6.7v11.7s11.3 12.3 13 14.7c1.7 2.3 13 25.3 13 25.3v20.3l8.3 5.7s.7 2 .1 5 3 9.3 6 10.3 6.7 7.7 10 11.3c3.3 3.7 6.7 15.7 7.7 16 1 .3 6.3-4 6.3-4s8.3 4 12.7 4c4.3 0 9-3.7 12.7-3 3.7.7 3.7 16.7 2.7 23.7s7 1 12 0 16-6.7 16-6.7l33-52.3 5.3-247-34.5-18.9z"/>
  <g id="XMLID_254_">
    <path id="round-rock" class="st3" d="M580.8 375.7c2.7.5 6.6-.5 6.6-.5l10.8-2.7 10.8 8.7 48-11.6 9-16.1 7.1 2.9v-26.9l-7-3v-15.7l-15.7-2.3v-26.3h11.3l-13.8-32.9-4-8.8-22.3 10.3-4.3-8-32.3 9.3-2 6.7-18.3 3.7-9.3-5-8 8-4.7-2.7-41.7 10.5v.1l1.7 16.4-42 14.7 9.7 12.3 1.3 43.7 15.3 13.3s18-5 26-5 14.7 1.3 22 2.5 36.7 11.2 36.7 11.2 6.4-7.3 9.1-6.8z"/>
  </g>
  <g id="XMLID_252_">
    <path id="north" class="st1" d="M486.8 373.8v4.7s-42.7 13-43.7 12.7c-1-.3-22 14-25.3 18.7-3.3 4.7-22 30.3-23.3 32.3-.6.9-3.8 4.9-7.2 9 0 0 21.6 13.7 35.6 28s28.3 34.3 28.3 34.3 7.7-18.2 18-23.3 32-12 35-12.4c0 0 6 5.7 8.3 8.7 2.3 3 10.7 18.7 18.3 27 7.7 8.3 24.5 31.7 24.5 31.7h.2s14.3-35.7 16-44c1.7-8.3 17.7-82 17.7-82s2-31.2-2-43.9c-.9.2-4.1.9-6.4.4-2.7-.5-9 6.8-9 6.8s-29.3-10-36.7-11.2c-7.3-1.2-14-2.5-22-2.5s-26 5-26 5"/>
  </g>
  <path id="central" class="st3" d="M555.5 545.2h-.1s-16.8-23.3-24.5-31.7c-7.7-8.3-16-24-18.3-27-2.3-3-8.3-8.7-8.3-8.7-3 .3-24.7 7.3-35 12.4s-18 23.3-18 23.3 4.1 4.2 7.3 7.7 6.2 10.3 8.2 20.5c2 10.2-.7 26.5-2.5 32.7-1.8 6.2-6 16-3.8 22.5s28.5 18.3 36.8 22.8 23 6.1 23 6.1h.1l35-80.6"/>
  <path id="south" class="st0" d="M520.3 625.7c-.1 0-.1.1 0 0-.1 0-14.8-1.6-23.1-6.1-2.5-1.4-6.6-3.4-11.2-5.7l-31.4 15.5-7 7.3h-10.4s-14.9 10.3-15.9 10.7-50 41-50 41 21.3 26 21.7 27c.3 1 11.7 11.3 13 16 1.3 4.7 12 6 12 6v9.7s5 9.3 6.7 16.5c1.7 7.1 12.6 13.5 12.6 13.5 6-14 12.5-28.9 14.5-32.6 4-7.5 34-52 41.5-58.7s26.9-60 27-60.1"/>
  <path id="southwest" class="st3" d="M424.7 763.6c-1.7-7.1-6.7-16.5-6.7-16.5v-9.7s-10.7-1.3-12-6c-1.3-4.7-12.7-15-13-16-.3-1-21.7-27-21.7-27s34.4-28.5 46.1-38l-23.7.1s-22.3-.3-28 0c-5.6.3-15.2 4.2-23.7 4.5s-16.7-1.7-26.8-2.5-15.8 2.8-26.5 6.5-41.2 17.8-41.2 17.8L425.8 804l11.5-26.9s-11-6.3-12.6-13.5z"/>
  <path id="west" class="st1" d="M486.1 614.1l-31.4 15.5-7 7.3h-10.4s-14.9 10.3-15.9 10.7c-.2.1-1.6 1.2-3.9 3l-23.5.1s-22.3-.3-28 0c-5.6.3-15.2 4.2-23.7 4.5s-16.7-1.7-26.8-2.5-15.8 2.8-26.5 6.5-41.2 17.8-41.2 17.8l-47-35.4 14.3-17v-3.8l.8-4 8.3-1.8 4.8-5s1.2-.2 1.7 0 2.7 5.2 4 5c1.3-.2 7.7-3.3 7.7-3.3s2.3-5 3.2-5c.8 0 3.2 2 4.3 2.8 1.2.8 3.7 4.6 3.7 4.6s29.2-12.8 33.8-14.1c4.7-1.3 23.2-3.7 23.2-3.7s-12.2-18.2-17.7-23.2-16-9.8-19.2-10.5c-3.2-.7-13.3-3-13.3-3s-8.8-19.8-8.5-25.2c0 0 7.2-5.3 15.3-7 8.2-1.7 20.2-.3 21 0 0 0-3.8 7.8 1.3 9.7 5.2 1.8 23.8.3 34-2.8 10.2-3.2 35.7-13.7 41.3-15.5 5.7-1.8 13.2-4 16.3-2 3.2 2 4.2 7.2 4.5 11.2.3 4 .7 16 3 17.3 2.3 1.3 10.2 2.7 13.5-1.7 3.3-4.3 14.7-20 18.5-23.8 3.8-3.8 12.7-6.5 16-6.7 3.3-.2 10.4-.5 14.7.5 0 0 4.1 4.2 7.3 7.7s6.2 10.3 8.2 20.5c2 10.2-.7 26.5-2.5 32.7-1.8 6.2-6 16-3.8 22.5l25.6 17.1z"/>
  <path id="river-north" class="st3" d="M451.1 513.5s-14.3-20-28.3-34.3c-14-14.3-35.6-28-35.6-28l-.1-.1c.4-.5-8.1 9.8-9.9 10.6 0 0-4.4-3.5-8.3-6.9l-35.6 18-21.3 8.1s-1.7 10.2-1.7 18.7-7 12-11.5 14.8-10.8 13.1-10.8 13.1-3.8 7.8 1.3 9.7c5.2 1.8 23.8.3 34-2.8 10.2-3.2 35.7-13.7 41.3-15.5 5.7-1.8 13.2-4 16.3-2 3.2 2 4.2 7.2 4.5 11.2.3 4 .7 16 3 17.3 2.3 1.3 10.2 2.7 13.5-1.7 3.3-4.3 14.7-20 18.5-23.8 3.8-3.8 12.7-6.5 16-6.7 3.3-.2 10.4-.5 14.7.5"/>
  <g id="XMLID_245_">
    <path id="lake-south" class="st2" d="M214.8 620.8l.8-4 8.3-1.8 4.8-5s1.2-.2 1.7 0 2.7 5.2 4 5c1.3-.2 7.7-3.3 7.7-3.3s2.3-5 3.2-5c.8 0 3.2 2 4.3 2.8 1.2.8 3.7 4.6 3.7 4.6s29.2-12.8 33.8-14.1c4.7-1.3 23.2-3.7 23.2-3.7s-12.2-18.2-17.7-23.2-16-9.8-19.2-10.5c-3.2-.7-13.3-3-13.3-3s-8.8-19.8-8.5-25.2c0 0 7.2-5.3 15.3-7 7.9-1.6 19.5-.4 20.9 0 .4-.6 6.4-10.5 10.8-13.2 4.5-2.8 11.5-6.3 11.5-14.8s1.7-18.7 1.7-18.7l.1-.1c.5-1.1 10.7-23.6 13.3-25.3 2.7-1.7-14-24-14-24s-9.7-18-13.7-18.3c-4-.3-20 3.3-21 6.3s-4.3 12.7-2.3 19.3c2 6.7 7.3 21 3.7 24.3-3.7 3.3-15.7 3.3-21.3 5-5.7 1.7-27.7 13.3-32 15.7-4.3 2.3-24.7 9.7-25.7 4.7s5.7-19.7 9-23.7 21.7-20.3 19.3-21.7c-2.3-1.3-54-6.7-55-7-1-.3-7.3-8.3-3.3-12 4-3.7 28-21.7 37.7-25 9.7-3.3 2.3-25-.3-27.7-2.7-2.7-14-5.3-20 1.3-6 6.7-24.3 34-24.3 34s-8.3 11.3-10.7 11.3c-2.3 0-8.7-3.3-10-9.7-1.3-6.3 3-26-4.7-28s-20.7 0-25.3-2.7c-.5-.3-1-.7-1.5-1.3L26.4 490.2l30.7 19 12-8 10.7 7 5-4.7 12 3-9.3 6.5 7 13.9L69 542.5l131.4 99.2 14.3-17v-3.9z"/>
  </g>
  <g id="XMLID_242_">
    <text id="XMLID_169_" transform="translate(551.783 161.1907)" class="st4 st5 st6">
      GEORGETOWN
    </text>
  </g>
  <g id="XMLID_239_">
    <text id="XMLID_167_" transform="translate(703.8062 284.1334)" class="st4 st5 st6">
      hutto
    </text>
  </g>
  <g id="XMLID_236_">
    <text id="XMLID_165_" transform="translate(674.9265 490.2086)" class="st4 st5 st6">
      NORTHEAST
    </text>
  </g>
  <g id="XMLID_233_">
    <text id="XMLID_163_" transform="translate(274.9685 685.8138)" class="st4 st5 st6">
      southwest
    </text>
  </g>
  <g id="XMLID_230_">
    <text id="XMLID_161_" transform="translate(131.0709 536.8135)" class="st4 st5 st6">
      lake south
    </text>
  </g>
  <g id="XMLID_227_">
    <text id="XMLID_159_" transform="translate(360.8823 594.9919)" class="st4 st5 st6">
      west
    </text>
  </g>
  <g id="XMLID_224_">
    <text id="XMLID_157_" transform="translate(478.8203 552.7908)" class="st4 st5 st6">
      central
    </text>
  </g>
  <g id="XMLID_221_">
    <text id="XMLID_155_" transform="translate(480.6567 436.7908)" class="st4 st5 st6">
      north
    </text>
  </g>
  <g id="XMLID_218_">
    <text id="XMLID_153_" transform="translate(349.9908 490.2082)">
      <tspan x="0" y="0" class="st4 st5 st6">river</tspan><tspan x="-2.9" y="13.8" class="st4 st5 st6">north</tspan>
    </text>
  </g>
  <g id="XMLID_215_">
    <text id="XMLID_46_" transform="translate(213.8439 329.8405)" class="st4 st5 st6">
      lake north
    </text>
  </g>
  <g id="XMLID_212_">
    <text id="XMLID_42_" transform="translate(319.8284 191.4992)" class="st4 st5 st6">
      northwest
    </text>
  </g>
  <g id="XMLID_209_">
    <text id="XMLID_40_" transform="translate(524.2441 321.4992)" class="st4 st5 st6">
      round rock
    </text>
  </g>
  <g id="XMLID_206_">
    <text id="XMLID_38_" transform="translate(409.1195 695.5477)" class="st4 st5 st6">
      south
    </text>
  </g>
  <g id="XMLID_204_">
    <path id="kyle-buda" class="st3" d="M297.7 712.9l-6.5 41.3-28.7-4-.7 27h-27.3l-1.3-13.5h-39l-.7-11.5s-6.3.3-10.3 3c-4 2.7-7.4 6.7-7.2 10.3.2 3.7 0 9.7 0 9.7s-2.8-2.7-7.1-3c-4.3-.3-21.3 3-27.7 7.7-6.3 4.7-14 12.3-14 12.3l-.3 9.7s26.3.7 31.3 2.2 10.3 4.8 10.7 7.2c.2 1.3.5 3.4.1 5l-1.1 23.5-.5 22.2 58.9-2 .8 11.5-20.8 1.7L212 1001l25.7-14.2 34.8 29.9s15.6-16 17.8-16.5 13.6-.1 13.6-.1l24.9-21.3 9.4 7.1L329 996l15.9 14.2-8.5 11.6 18.8 16.3 23.4-22.5 16.7 17s62.7-40.9 68.3-48.1 23.5-17.5 30.5-29.8 15.6-18.8 28.4-26.1c12.8-7.3 40-27 40-27L297.7 712.9z"/>
  </g>
  <g id="XMLID_201_">
    <text id="XMLID_36_" transform="translate(67.2537 685.8137)">
      <tspan x="0" y="0" class="st4 st5 st6">dripping</tspan><tspan x="2.3" y="13.8" class="st4 st5 st6">springs</tspan>
    </text>
  </g>
  <g id="XMLID_198_">
    <text id="XMLID_34_" transform="translate(308.4261 875.4128)" class="st4 st5 st6">
      kyle/buda
    </text>
  </g>
  <path id="XMLID_196_" class="st2" d="M555.3 545.2l-.1.2c.3.1.7.3 1.2.5-.6-.5-1.1-.7-1.1-.7z"/>
  <path id="southeast" class="st1" d="M550.2 635.3c-8.4-4.4-14-7.8-20-8.6-6-.7-10-1-10-1s-19.6 53.4-27.1 60.1-37.5 51.2-41.5 58.7-26 59.5-26 59.5l137 97.5 224.8-213.7s-11 5.7-16 6.7-13 7-12 0 1-23-2.7-23.7c-3.7-.7-8.3 3-12.7 3s-12.7-4-12.7-4-5.3 4.3-6.3 4c-1-.3-4.3-12.3-7.7-16-3.3-3.7-7-10.3-10-11.3s-6.7-7.3-6-10.3-.1-5-.1-5l-8.3-5.7v-20.3s-11.3-23-13-25.3c-1.7-2.3-13-14.7-13-14.7v-11.7s-24 6.3-37 6.7c-13 .3-43.7 1.3-47.3.3-.2-.1-.5-.2-.9-.3 3.2 5.3 9.7 21.7 8.1 27.1-1.6 5.6-7.7 26.9-10 30.7-2.3 3.8-8.3 15.9-12.1 17.4-1.5.6-9 .5-17.5-.1"/>
  <path id="XMLID_19_" class="st2" d="M520.3 625.8s.4 0 1.2.1c-.1-.7-.2-1.3-.3-2l-.9 1.9z"/>
  <path id="east" class="st2" d="M567.7 635.4c3.8-1.5 9.9-13.6 12.1-17.4 2.3-3.8 8.3-25 10-30.7 1.6-5.4-4.9-21.8-8.1-27.1-4.8-2-20.8-11.6-25.3-14.3-.5-.2-1-.4-1.2-.5l-34.1 78.5c.1.7.2 1.4.3 2 1.6.1 4.8.4 8.8.9 4.6.6 12.2 4.1 19.9 8.6 8.6.5 16.1.6 17.6 0z"/>
  <g id="XMLID_15_">
    <text id="XMLID_166_" transform="translate(543.2605 598.6671)" class="st4 st5 st6">
      EAST
    </text>
  </g>
  <g id="XMLID_12_">
    <text id="XMLID_168_" transform="translate(562.2434 722.9998)" class="st4 st5 st6">
      southEAST
    </text>
  </g>
</svg>
