<svg version="1.1" id="Layer_1" xmlns="http://www.w3.org/2000/svg" xmlns:xlink="http://www.w3.org/1999/xlink" x="0px" y="0px" viewBox="0 0 826.3 1038.4" style="enable-background:new 0 0 826.3 1038.4;" xml:space="preserve"><style type="text/css">.st0{fill:#848487;stroke:#E3E2E2;stroke-linejoin:round;stroke-miterlimit:10;}	.st1{fill:#C2C1C2;stroke:#E3E2E2;stroke-linejoin:round;stroke-miterlimit:10;}	.st2{fill:#969698;stroke:#E3E2E2;stroke-linejoin:round;stroke-miterlimit:10;}	.st3{fill:#B0AFB1;stroke:#E3E2E2;stroke-linejoin:round;stroke-miterlimit:10;}	.st4{fill:#FFFFFF;}	.st5{font-family:'Arial-BoldMT';}	.st6{font-size:11.5px;}</style><path id="dripping-springs" class="st0" d="M200.5,641.7L69,542.5l25.3-15.7l-7-13.9l9.3-6.5l-12-3l-5,4.7l-10.7-7l-12,8l-30.7-19	l-13.2,17.6l-12.7,42v239.7c0,0,24.3,1.3,35.3,4s17.3,11.3,21.7,18s12.7,12.3,12.7,12.3l13.3,0.3l2.7-2c0,0,2.3-5,4.3-5	s3.7,3.3,6.3,6c2.7,2.7,5,2,5,2l16,2.3c0.7-1,5-5.3,8.3-7c3.3-1.7,10-2,10-2s27,0.3,30.3,0s2.7-5,2.3-7.3c-0.3-2.3-5.7-5.7-10.7-7.2	s-31.3-2.2-31.3-2.2l0.3-9.7c0,0,7.7-7.7,14-12.3c6.3-4.7,23.3-8,27.7-7.7c4.3,0.3,7.1,3,7.1,3s0.2-6,0-9.7	c-0.2-3.7,3.2-7.7,7.2-10.3c4-2.7,10.3-3,10.3-3l0.7,11.5h39l1.3,13.5h27.3l0.7-27l28.7,4l6.5-41.5L247.6,677c0,0-0.1,0-0.1,0	l-47-35.4"></path><path id="georgetown" class="st1" d="M384.5,78.5l39.3-12.7c0,0-5.7-24.7-9.7-29.7l7.7-5l2-17.7h55.3l20,21.3c0,0,16.7,0,19,2.7	c2.3,2.7-2,8.5-2,8.5s0,7.8,2.7,11.8c2.6,4,10.3,14.7,12,18.3c1.7,3.7,8.7,21,8.7,21l42-9.7c0,0,13-8,12.3-16.7c0,0,5.3-4,12.7-2.7	c7.3,1.3,10.7,5.7,10.7,5.7l16-6.7l29-11.8l-9.3-23.2l50-14.7l14,23.3l10.7-0.3v7l9.7,7.8l-4,43.5l-13,5.7l7.3,29.7l9.7-1.7l8.7-9.7	c0,0,1.3,7,5.3,11.3c4,4.3,19.3,17.7,19.3,17.7l17-3c0,0,8.7-2,11.3,3c2.7,5,12,33,12,33l-21.7,9.3c0,0-16.7,0.3-20.3-2	c-3.7-2.3-19.3-2.3-22.7-2.3c-3.3,0-12.7-3-18.3-4c-5.7-1-21.3-2-25-1.7c-3.7,0.3-19.7,8.3-19.7,8.3l10.3,32.7l-22.3,9.3l-0.3,6.3	c0,0,0.7,4.3-3.7,3.7c-4.3-0.7-7.7-4.3-7.7-4.3l-11,10.7l-4.7-10.3l-22.3,10.3l-4.3-8l-32.3,9.3l-2,6.7l-18.3,3.7l-9.3-5l-8,8	l-4.7-2.7l-45,11.3l-25.7-91l24.7-12.7l-8.7-26.7l-47.3,11l-5-15.3l-35.7,6.7l2-12.3c0,0-5.3-5-5.7-9.7c-0.3-4.7,6.7-14.7,6.7-14.7	L384.5,78.5z"></path><path id="hutto" class="st2" d="M789.3,194.2c0,0-16.7,0.3-20.3-2c-3.7-2.3-19.3-2.3-22.7-2.3c-3.3,0-12.7-3-18.3-4	s-21.3-2-25-1.7c-3.7,0.3-19.7,8.3-19.7,8.3l10.3,32.7l-22.3,9.3l-0.3,6.3c0,0,0.7,4.3-3.7,3.7c-4.3-0.7-7.7-4.3-7.7-4.3l-11,10.7	l-1.5-3.4v0l14.5,34.7h-11.3v26.3l15.7,2.3v15.7l7,3v27l8-5.7c0,0,6.7-1.3,8.3-1.3c1.7,0,9-0.7,9-0.7l31.3,31.7l4.3-4.3l13,8	l16.7-14.7l24,14.7l7.7-31.3l7.7-3.3v-23.3l-6-2.7l-5,3.7l-4.3-1l7.3-11.3l6-32c0,0-5-6.3-9.3-10.7c-4.3-4.3-13-19.7-13-19.7	l24.3-14L789.3,194.2z"></path><path id="northwest" class="st2" d="M500.8,273.4l-3,0.8l-25.7-91l24.7-12.7l-8.7-26.7l-47.3,11l-5-15.3l-35.7,6.7l2-12.3	c0,0-5.3-5-5.7-9.7c-0.3-4.7,6.7-14.7,6.7-14.7l-18.3-31l39.3-12.7c0,0-1.3-5.8-3.2-12.3l-40.2,12.3l-5.3-10l-12,3.3l-15.7-45.7	l-19,12l-15-25l-33.3,6.7l5.7,16.7l-11.3,3.7l-2.3-8h-11.3l-6.3-10l-90.3,182.3c0,0,7,7.7,8.3,9c1.3,1.3,3,7.3,3,7.3s8-3.3,13-4.7	s18.7-2.3,18.7-2.3l3.3-9l16,18.3c0,0,4.3-5,7.3-6.7c3-1.7,5-2.7,9-2.7s14-4,14-4l8.7-5.7c0,0,7,11.7,17.3,18.7s22.7,5.3,22.7,5.3	v23.7l3.7,6.7l-10.7,13.7l2,8.7c0,0,8.7-5,10.3-6s9-1.7,9-1.7l3.7-4l7,8l8.8,3.3l5.5,13l23.3,10l-7,28l13,12.3l-3.7,21l19,20.7	l-5,27.7l-21.7,11.3c0,0-0.3,36.3-0.3,37.3s14.3,12.7,14.3,12.7c2.3-1,16-17.7,17.3-19.7c1.3-2,20-27.7,23.3-32.3	c3.3-4.7,24.3-19,25.3-18.7c1,0.3,43.7-12.7,43.7-12.7v-4.7l-15.3-13.3l-1.3-43.7l-9.7-12.3l42-14.7L500.8,273.4z"></path><path id="lake-north" class="st0" d="M363.1,449.2c0-1,0.3-37.3,0.3-37.3l21.7-11.3l5-27.7l-19-20.7l3.7-21l-13-12.3l7-28l-23.3-10	l-5.5-13l-8.8-3.3l-7-8l-3.7,4c0,0-7.3,0.7-9,1.7s-10.3,6-10.3,6l-2-8.7l10.7-13.7l-3.7-6.7v-23.7c0,0-12.3,1.7-22.7-5.3	s-17.3-18.7-17.3-18.7l-8.7,5.7c0,0-10,4-14,4s-6,1-9,2.7c-3,1.7-7.3,6.7-7.3,6.7l-16-18.3l-3.3,9c0,0-13.7,1-18.7,2.3	s-13,4.7-13,4.7s-1.7-6-3-7.3c-1.3-1.3-8.3-9-8.3-9l-76,155.7c0,0,14-1.7,17,0s0.7,8.7-0.3,11.7s1.3,16,6,18.7	c4.7,2.7,17.7,0.7,25.3,2.7c7.7,2,3.3,21.7,4.7,28c1.3,6.3,7.7,9.7,10,9.7c2.3,0,10.7-11.3,10.7-11.3s18.3-27.3,24.3-34	c6-6.7,17.3-4,20-1.3c2.7,2.7,10,24.3,0.3,27.7c-9.7,3.3-33.7,21.3-37.7,25c-4,3.7,2.3,11.7,3.3,12c1,0.3,52.7,5.7,55,7	c2.3,1.3-16,17.7-19.3,21.7s-10,18.7-9,23.7s21.3-2.3,25.7-4.7c4.3-2.3,26.3-14,32-15.7c5.7-1.7,17.7-1.7,21.3-5	c3.7-3.3-1.7-17.7-3.7-24.3c-2-6.7,1.3-16.3,2.3-19.3s17-6.7,21-6.3c4,0.3,13.7,18.3,13.7,18.3s16.7,22.3,14,24	c-2.7,1.7-13.3,25.3-13.3,25.3c4,1,23.3-1.3,34-3.7c10.7-2.3,31.3-15.3,31.3-15.3S363.1,450.2,363.1,449.2z"></path><path id="northeast" class="st0" d="M791.5,369.6l-3.6,14.6l-24-14.7l-16.7,14.7l-13-8l-4.3,4.3l-31.3-31.7c0,0-7.3,0.7-9,0.7	c-1.7,0-8.3,1.3-8.3,1.3l-8,5.7l-7.4-3l-9,16.1l-48,11.6l-10.8-8.7l-10.8,2.7c4,12.7,2,44,2,44s-16,73.7-17.7,82	c-1.7,8.3-16,44-16,44s23.7,14.3,27.3,15.3c3.7,1,34.3,0,47.3-0.3c13-0.3,37-6.7,37-6.7v11.7c0,0,11.3,12.3,13,14.7	c1.7,2.3,13,25.3,13,25.3v20.3l8.3,5.7c0,0,0.7,2,0.1,5s3,9.3,6,10.3s6.7,7.7,10,11.3c3.3,3.7,6.7,15.7,7.7,16c1,0.3,6.3-4,6.3-4	s8.3,4,12.7,4c4.3,0,9-3.7,12.7-3c3.7,0.7,3.7,16.7,2.7,23.7s7,1,12,0s16-6.7,16-6.7l33-52.3l5.3-247L791.5,369.6z"></path><g id="XMLID_254_"><path id="round-rock" class="st3" d="M580.8,375.7c2.7,0.5,6.6-0.5,6.6-0.5l10.8-2.7l10.8,8.7l48-11.6l9-16.1l7.1,2.9v-26.9l-7-3	v-15.7l-15.7-2.3v-26.3h11.3l-13.8-32.9l-4-8.8l-22.3,10.3l-4.3-8l-32.3,9.3l-2,6.7l-18.3,3.7l-9.3-5l-8,8l-4.7-2.7l-41.7,10.5	l0,0.1l1.7,16.4l-42,14.7l9.7,12.3l1.3,43.7l15.3,13.3c0,0,18-5,26-5c8,0,14.7,1.3,22,2.5s36.7,11.2,36.7,11.2	S578.1,375.2,580.8,375.7z"></path></g><g id="XMLID_252_"><path id="north" class="st1" d="M486.8,373.8v4.7c0,0-42.7,13-43.7,12.7c-1-0.3-22,14-25.3,18.7c-3.3,4.7-22,30.3-23.3,32.3	c-0.6,0.9-3.8,4.9-7.2,9l0,0c0,0,21.6,13.7,35.6,28c14,14.3,28.3,34.3,28.3,34.3s7.7-18.2,18-23.3s32-12,35-12.4c0,0,6,5.7,8.3,8.7	c2.3,3,10.7,18.7,18.3,27c7.7,8.3,24.5,31.7,24.5,31.7h0.2c0,0,14.3-35.7,16-44c1.7-8.3,17.7-82,17.7-82s2-31.2-2-43.9	c-0.9,0.2-4.1,0.9-6.4,0.4c-2.7-0.5-9,6.8-9,6.8s-29.3-10-36.7-11.2c-7.3-1.2-14-2.5-22-2.5s-26,5-26,5"></path></g><path id="central" class="st3" d="M555.5,545.2h-0.1c0,0-16.8-23.3-24.5-31.7c-7.7-8.3-16-24-18.3-27c-2.3-3-8.3-8.7-8.3-8.7	c-3,0.3-24.7,7.3-35,12.4s-18,23.3-18,23.3v0v0c0,0,4.1,4.2,7.3,7.7c3.2,3.5,6.2,10.3,8.2,20.5c2,10.2-0.7,26.5-2.5,32.7	c-1.8,6.2-6,16-3.8,22.5c2.2,6.5,28.5,18.3,36.8,22.8s23,6.1,23,6.1s0,0,0.1,0l35-80.6"></path><path id="south" class="st0" d="M520.3,625.7C520.2,625.7,520.2,625.8,520.3,625.7c-0.1,0-14.8-1.6-23.1-6.1	c-2.5-1.4-6.6-3.4-11.2-5.7l0,0l-31.4,15.5l-7,7.3h-10.4c0,0-14.9,10.3-15.9,10.7s-50,41-50,41s21.3,26,21.7,27	c0.3,1,11.7,11.3,13,16c1.3,4.7,12,6,12,6v9.7c0,0,5,9.3,6.7,16.5c1.7,7.1,12.6,13.5,12.6,13.5c6-14,12.5-28.9,14.5-32.6	c4-7.5,34-52,41.5-58.7S520.2,625.8,520.3,625.7L520.3,625.7"></path><path id="southwest" class="st3" d="M424.7,763.6c-1.7-7.1-6.7-16.5-6.7-16.5v-9.7c0,0-10.7-1.3-12-6c-1.3-4.7-12.7-15-13-16	c-0.3-1-21.7-27-21.7-27s34.4-28.5,46.1-38l-23.7,0.1c0,0-22.3-0.3-28,0c-5.6,0.3-15.2,4.2-23.7,4.5s-16.7-1.7-26.8-2.5	s-15.8,2.8-26.5,6.5c-10.7,3.7-41.2,17.8-41.2,17.8L425.8,804l11.5-26.9C437.3,777.1,426.3,770.8,424.7,763.6z"></path><path id="west" class="st1" d="M486.1,614.1l-31.4,15.5l-7,7.3h-10.4c0,0-14.9,10.3-15.9,10.7c-0.2,0.1-1.6,1.2-3.9,3	l-23.5,0.1c0,0-22.3-0.3-28,0c-5.6,0.3-15.2,4.2-23.7,4.5s-16.7-1.7-26.8-2.5s-15.8,2.8-26.5,6.5c-10.7,3.7-41.2,17.8-41.2,17.8l0,0	l-47-35.4l14.3-17v-3.8l0.8-4l8.3-1.8l4.8-5c0,0,1.2-0.2,1.7,0c0.5,0.2,2.7,5.2,4,5c1.3-0.2,7.7-3.3,7.7-3.3s2.3-5,3.2-5	c0.8,0,3.2,2,4.3,2.8c1.2,0.8,3.7,4.6,3.7,4.6s29.2-12.8,33.8-14.1c4.7-1.3,23.2-3.7,23.2-3.7s-12.2-18.2-17.7-23.2	s-16-9.8-19.2-10.5c-3.2-0.7-13.3-3-13.3-3s-8.8-19.8-8.5-25.2c0,0,7.2-5.3,15.3-7c8.2-1.7,20.2-0.3,21,0c0,0-3.8,7.8,1.3,9.7	c5.2,1.8,23.8,0.3,34-2.8c10.2-3.2,35.7-13.7,41.3-15.5c5.7-1.8,13.2-4,16.3-2c3.2,2,4.2,7.2,4.5,11.2c0.3,4,0.7,16,3,17.3	c2.3,1.3,10.2,2.7,13.5-1.7c3.3-4.3,14.7-20,18.5-23.8c3.8-3.8,12.7-6.5,16-6.7c3.3-0.2,10.4-0.5,14.7,0.5l0,0c0,0,4.1,4.2,7.3,7.7	c3.2,3.5,6.2,10.3,8.2,20.5c2,10.2-0.7,26.5-2.5,32.7c-1.8,6.2-6,16-3.8,22.5L486.1,614.1z"></path><path id="river-north" class="st3" d="M451.1,513.5c0,0-14.3-20-28.3-34.3c-14-14.3-35.6-28-35.6-28l-0.1-0.1	c0.4-0.5-8.1,9.8-9.9,10.6c0,0-4.4-3.5-8.3-6.9l-35.6,18l-21.3,8.1c0,0-1.7,10.2-1.7,18.7s-7,12-11.5,14.8S288,527.5,288,527.5	s-3.8,7.8,1.3,9.7c5.2,1.8,23.8,0.3,34-2.8c10.2-3.2,35.7-13.7,41.3-15.5c5.7-1.8,13.2-4,16.3-2c3.2,2,4.2,7.2,4.5,11.2	c0.3,4,0.7,16,3,17.3c2.3,1.3,10.2,2.7,13.5-1.7c3.3-4.3,14.7-20,18.5-23.8c3.8-3.8,12.7-6.5,16-6.7c3.3-0.2,10.4-0.5,14.7,0.5"></path><g id="XMLID_245_"><path id="lake-south" class="st2" d="M214.8,620.8l0.8-4l8.3-1.8l4.8-5c0,0,1.2-0.2,1.7,0c0.5,0.2,2.7,5.2,4,5	c1.3-0.2,7.7-3.3,7.7-3.3s2.3-5,3.2-5c0.8,0,3.2,2,4.3,2.8c1.2,0.8,3.7,4.6,3.7,4.6s29.2-12.8,33.8-14.1c4.7-1.3,23.2-3.7,23.2-3.7	s-12.2-18.2-17.7-23.2s-16-9.8-19.2-10.5c-3.2-0.7-13.3-3-13.3-3s-8.8-19.8-8.5-25.2c0,0,7.2-5.3,15.3-7c7.9-1.6,19.5-0.4,20.9,0	c0.4-0.6,6.4-10.5,10.8-13.2c4.5-2.8,11.5-6.3,11.5-14.8s1.7-18.7,1.7-18.7l0.1-0.1c0.5-1.1,10.7-23.6,13.3-25.3	c2.7-1.7-14-24-14-24s-9.7-18-13.7-18.3c-4-0.3-20,3.3-21,6.3s-4.3,12.7-2.3,19.3c2,6.7,7.3,21,3.7,24.3c-3.7,3.3-15.7,3.3-21.3,5	c-5.7,1.7-27.7,13.3-32,15.7c-4.3,2.3-24.7,9.7-25.7,4.7s5.7-19.7,9-23.7s21.7-20.3,19.3-21.7c-2.3-1.3-54-6.7-55-7	c-1-0.3-7.3-8.3-3.3-12c4-3.7,28-21.7,37.7-25c9.7-3.3,2.3-25-0.3-27.7c-2.7-2.7-14-5.3-20,1.3c-6,6.7-24.3,34-24.3,34	s-8.3,11.3-10.7,11.3c-2.3,0-8.7-3.3-10-9.7c-1.3-6.3,3-26-4.7-28c-7.7-2-20.7,0-25.3-2.7c-0.5-0.3-1-0.7-1.5-1.3L26.4,490.2	l30.7,19l12-8l10.7,7l5-4.7l12,3l-9.3,6.5l7,13.9L69,542.5l131.4,99.2l14.3-17V620.8z"></path></g><g id="XMLID_242_"><text id="XMLID_169_" transform="matrix(1 0 0 1 551.783 161.1907)" class="st4 st5 st6">GEORGETOWN</text></g><g id="XMLID_239_"><text id="XMLID_167_" transform="matrix(1 0 0 1 703.8062 284.1334)" class="st4 st5 st6">hutto</text></g><g id="XMLID_236_"><text id="XMLID_165_" transform="matrix(1 0 0 1 674.9265 490.2086)" class="st4 st5 st6">NORTHEAST</text></g><g id="XMLID_233_"><text id="XMLID_163_" transform="matrix(1 0 0 1 274.9685 685.8138)" class="st4 st5 st6">southwest</text></g><g id="XMLID_230_"><text id="XMLID_161_" transform="matrix(1 0 0 1 131.0709 536.8135)" class="st4 st5 st6">lake south</text></g><g id="XMLID_227_"><text id="XMLID_159_" transform="matrix(1 0 0 1 360.8823 594.9919)" class="st4 st5 st6">west</text></g><g id="XMLID_224_"><text id="XMLID_157_" transform="matrix(1 0 0 1 478.8203 552.7908)" class="st4 st5 st6">central</text></g><g id="XMLID_221_"><text id="XMLID_155_" transform="matrix(1 0 0 1 480.6567 436.7908)" class="st4 st5 st6">north</text></g><g id="XMLID_218_"><text id="XMLID_153_" transform="matrix(1 0 0 1 349.9908 490.2082)"><tspan x="0" y="0" class="st4 st5 st6">river</tspan><tspan x="-2.9" y="13.8" class="st4 st5 st6">north</tspan></text></g><g id="XMLID_215_"><text id="XMLID_46_" transform="matrix(1 0 0 1 213.8439 329.8405)" class="st4 st5 st6">lake north</text></g><g id="XMLID_212_"><text id="XMLID_42_" transform="matrix(1 0 0 1 319.8284 191.4992)" class="st4 st5 st6">northwest</text></g><g id="XMLID_209_"><text id="XMLID_40_" transform="matrix(1 0 0 1 524.2441 321.4992)" class="st4 st5 st6">round rock</text></g><g id="XMLID_206_"><text id="XMLID_38_" transform="matrix(1 0 0 1 409.1195 695.5477)" class="st4 st5 st6">south</text></g><g id="XMLID_204_"><path id="kyle-buda" class="st3" d="M297.7,712.9l-6.5,41.3l-28.7-4l-0.7,27h-27.3l-1.3-13.5h-39l-0.7-11.5c0,0-6.3,0.3-10.3,3	c-4,2.7-7.4,6.7-7.2,10.3c0.2,3.7,0,9.7,0,9.7s-2.8-2.7-7.1-3c-4.3-0.3-21.3,3-27.7,7.7c-6.3,4.7-14,12.3-14,12.3l-0.3,9.7	c0,0,26.3,0.7,31.3,2.2s10.3,4.8,10.7,7.2c0.2,1.3,0.5,3.4,0.1,5l0,0l-1.1,23.5l-0.5,22.2l58.9-2l0.8,11.5l-20.8,1.7L212,1001	l25.7-14.2l34.8,29.9c0,0,15.6-16,17.8-16.5s13.6-0.1,13.6-0.1l24.9-21.3l9.4,7.1l-9.2,10.1l15.9,14.2l-8.5,11.6l18.8,16.3	l23.4-22.5l16.7,17c0,0,62.7-40.9,68.3-48.1s23.5-17.5,30.5-29.8s15.6-18.8,28.4-26.1c12.8-7.3,40-27,40-27L297.7,712.9z"></path></g><g id="XMLID_201_"><text id="XMLID_36_" transform="matrix(1 0 0 1 67.2537 685.8137)"><tspan x="0" y="0" class="st4 st5 st6">dripping</tspan><tspan x="2.3" y="13.8" class="st4 st5 st6">springs</tspan></text></g><g id="XMLID_198_"><text id="XMLID_34_" transform="matrix(1 0 0 1 308.4261 875.4128)" class="st4 st5 st6">kyle/buda</text></g><path id="XMLID_196_" class="st2" d="M555.3,545.2l-0.1,0.2c0.3,0.1,0.7,0.3,1.2,0.5C555.8,545.4,555.3,545.2,555.3,545.2z"></path><path id="southeast" class="st1" d="M550.2,635.3c-8.4-4.4-14-7.8-20-8.6c-6-0.7-10-1-10-1c0,0-19.6,53.4-27.1,60.1	s-37.5,51.2-41.5,58.7s-26,59.5-26,59.5l137,97.5l224.8-213.7c0,0-11,5.7-16,6.7s-13,7-12,0s1-23-2.7-23.7c-3.7-0.7-8.3,3-12.7,3	s-12.7-4-12.7-4s-5.3,4.3-6.3,4H725c-1-0.3-4.3-12.3-7.7-16c-3.3-3.7-7-10.3-10-11.3s-6.7-7.3-6-10.3s-0.1-5-0.1-5l-8.3-5.7v-20.3	c0,0-11.3-23-13-25.3c-1.7-2.3-13-14.7-13-14.7v-11.7c0,0-24,6.3-37,6.7c-13,0.3-43.7,1.3-47.3,0.3c-0.2-0.1-0.5-0.2-0.9-0.3	c3.2,5.3,9.7,21.7,8.1,27.1c-1.6,5.6-7.7,26.9-10,30.7c-2.3,3.8-8.3,15.9-12.1,17.4C566.2,636,558.7,635.9,550.2,635.3"></path><path id="XMLID_19_" class="st2" d="M520.3,625.8c0,0,0.4,0,1.2,0.1c-0.1-0.7-0.2-1.3-0.3-2L520.3,625.8z"></path><path id="east" class="st2" d="M567.7,635.4c3.8-1.5,9.9-13.6,12.1-17.4c2.3-3.8,8.3-25,10-30.7c1.6-5.4-4.9-21.8-8.1-27.1	c-4.8-2-20.8-11.6-25.3-14.3c-0.5-0.2-1-0.4-1.2-0.5l-34.1,78.5c0.1,0.7,0.2,1.4,0.3,2c1.6,0.1,4.8,0.4,8.8,0.9	c4.6,0.6,12.2,4.1,19.9,8.6C558.7,635.9,566.2,636,567.7,635.4z"></path><g id="XMLID_15_"><text id="XMLID_166_" transform="matrix(1 0 0 1 543.2605 598.6671)" class="st4 st5 st6">EAST</text></g><g id="XMLID_12_"><text id="XMLID_168_" transform="matrix(1 0 0 1 562.2434 722.9998)" class="st4 st5 st6">southEAST</text></g></svg>
