<svg id="Layer_1" data-name="Layer 1" xmlns="http://www.w3.org/2000/svg" viewBox="0 0 300 300">
<defs>
<style>.cls-1{fill:#c4c4c4;}.cls-2{fill:#fff;}.cls-3{fill:#010101;}.cls-4{fill:#f28900;}.cls-5{fill:#57585a;}.cls-6{fill:#ffc72b;}</style>
</defs>
<g id="city_line" data-name="city line">
<polygon class="cls-1" points="150.86 292.86 89.29 292.86 89.29 56.82 120.08 36.29 150.86 56.82 150.86 292.86"/><rect class="cls-2" x="94.42" y="67.08" width="10.26" height="20.53"/><rect class="cls-2" x="114.94" y="67.08" width="10.26" height="20.53"/><rect class="cls-2" x="135.47" y="67.08" width="10.26" height="20.53"/><rect class="cls-2" x="94.42" y="97.87" width="10.26" height="20.53"/><rect class="cls-2" x="114.94" y="97.87" width="10.26" height="20.53"/><rect class="cls-2" x="135.47" y="97.87" width="10.26" height="20.53"/><rect class="cls-2" x="94.42" y="128.66" width="10.26" height="20.53"/><rect class="cls-2" x="114.94" y="128.66" width="10.26" height="20.53"/><rect class="cls-2" x="135.47" y="128.66" width="10.26" height="20.53"/><rect class="cls-2" x="94.42" y="159.44" width="10.26" height="20.53"/><rect class="cls-2" x="114.94" y="159.44" width="10.26" height="20.53"/><rect class="cls-2" x="135.47" y="159.44" width="10.26" height="20.53"/><rect class="cls-2" x="94.42" y="190.23" width="10.26" height="20.53"/><rect class="cls-2" x="114.94" y="190.23" width="10.26" height="20.53"/><rect class="cls-2" x="135.47" y="190.23" width="10.26" height="20.53"/><rect class="cls-2" x="94.42" y="221.02" width="10.26" height="20.53"/><rect class="cls-2" x="114.94" y="221.02" width="10.26" height="20.53"/><rect class="cls-2" x="135.47" y="221.02" width="10.26" height="20.53"/><rect class="cls-2" x="94.42" y="251.81" width="10.26" height="20.53"/><rect class="cls-2" x="114.94" y="251.81" width="10.26" height="20.53"/><rect class="cls-2" x="135.47" y="251.81" width="10.26" height="20.53"/><rect class="cls-3" x="94.42" y="85.55" width="51.31" height="4.11"/><rect class="cls-3" x="94.42" y="116.34" width="51.31" height="4.11"/><rect class="cls-3" x="94.42" y="147.13" width="51.31" height="4.11"/><rect class="cls-3" x="94.42" y="177.92" width="51.31" height="4.11"/><rect class="cls-3" x="94.42" y="208.71" width="51.31" height="4.11"/><rect class="cls-3" x="94.42" y="239.49" width="51.31" height="4.11"/><rect class="cls-3" x="94.42" y="270.28" width="51.31" height="4.11"/><polygon class="cls-4" points="212.44 292.86 150.86 292.86 150.86 26.03 181.65 5.51 212.44 26.03 212.44 292.86"/><rect class="cls-2" x="155.99" y="36.29" width="10.26" height="20.53"/><rect class="cls-2" x="176.52" y="36.29" width="10.26" height="20.53"/><rect class="cls-2" x="197.04" y="36.29" width="10.26" height="20.53"/><rect class="cls-2" x="155.99" y="67.08" width="10.26" height="20.53"/><rect class="cls-2" x="176.52" y="67.08" width="10.26" height="20.53"/><rect class="cls-2" x="197.04" y="67.08" width="10.26" height="20.53"/><rect class="cls-2" x="155.99" y="97.87" width="10.26" height="20.53"/><rect class="cls-2" x="176.52" y="97.87" width="10.26" height="20.53"/><rect class="cls-2" x="197.04" y="97.87" width="10.26" height="20.53"/><rect class="cls-2" x="155.99" y="128.66" width="10.26" height="20.53"/><rect class="cls-2" x="176.52" y="128.66" width="10.26" height="20.53"/><rect class="cls-2" x="197.04" y="128.66" width="10.26" height="20.53"/><rect class="cls-2" x="155.99" y="159.44" width="10.26" height="20.53"/><rect class="cls-2" x="176.52" y="159.44" width="10.26" height="20.53"/><rect class="cls-2" x="197.04" y="159.44" width="10.26" height="20.53"/><rect class="cls-2" x="155.99" y="190.23" width="10.26" height="20.53"/><rect class="cls-2" x="176.52" y="190.23" width="10.26" height="20.53"/><rect class="cls-2" x="197.04" y="190.23" width="10.26" height="20.53"/><rect class="cls-2" x="155.99" y="221.02" width="10.26" height="20.53"/><rect class="cls-2" x="176.52" y="221.02" width="10.26" height="20.53"/><rect class="cls-2" x="197.04" y="221.02" width="10.26" height="20.53"/><rect class="cls-2" x="155.99" y="251.81" width="10.26" height="20.53"/><rect class="cls-2" x="176.52" y="251.81" width="10.26" height="20.53"/><rect class="cls-2" x="197.04" y="251.81" width="10.26" height="20.53"/><rect class="cls-3" x="155.99" y="54.77" width="51.31" height="4.11"/><rect class="cls-3" x="155.99" y="85.55" width="51.31" height="4.11"/><rect class="cls-3" x="155.99" y="116.34" width="51.31" height="4.11"/><rect class="cls-3" x="155.99" y="147.13" width="51.31" height="4.11"/><rect class="cls-3" x="155.99" y="177.92" width="51.31" height="4.11"/><rect class="cls-3" x="155.99" y="208.71" width="51.31" height="4.11"/><rect class="cls-3" x="155.99" y="239.49" width="51.31" height="4.11"/><rect class="cls-3" x="155.99" y="270.28" width="51.31" height="4.11"/><rect class="cls-4" x="27.71" y="231.28" width="82.1" height="61.58"/><rect class="cls-3" x="27.71" y="249.75" width="82.1" height="4.11"/><rect class="cls-3" x="27.71" y="270.28" width="82.1" height="4.11"/><rect class="cls-3" x="35.92" y="241.54" width="4.11" height="10.26"/><rect class="cls-3" x="46.18" y="241.54" width="4.11" height="10.26"/><rect class="cls-3" x="56.45" y="241.54" width="4.11" height="10.26"/><rect class="cls-3" x="66.71" y="241.54" width="4.11" height="10.26"/><rect class="cls-3" x="76.97" y="241.54" width="4.11" height="10.26"/><rect class="cls-3" x="87.24" y="241.54" width="4.11" height="10.26"/><rect class="cls-3" x="97.5" y="241.54" width="4.11" height="10.26"/><rect class="cls-3" x="35.92" y="262.07" width="4.11" height="10.26"/><rect class="cls-3" x="46.18" y="262.07" width="4.11" height="10.26"/><rect class="cls-3" x="56.45" y="262.07" width="4.11" height="10.26"/><rect class="cls-3" x="66.71" y="262.07" width="4.11" height="10.26"/><rect class="cls-3" x="76.97" y="262.07" width="4.11" height="10.26"/><rect class="cls-3" x="66.71" y="282.6" width="4.11" height="10.26"/><polygon class="cls-3" points="81.08 292.86 76.97 292.86 76.97 284.65 59.7 284.65 59.7 292.86 55.59 292.86 55.59 280.54 81.08 280.54 81.08 292.86"/><rect class="cls-3" x="87.24" y="262.07" width="4.11" height="10.26"/><rect class="cls-3" x="97.5" y="262.07" width="4.11" height="10.26"/><polyline class="cls-1" points="89.29 231.28 89.29 128.66 48.24 149.18 48.24 231.28"/><rect class="cls-3" x="48.24" y="157.39" width="20.53" height="4.11"/><rect class="cls-3" x="48.24" y="167.65" width="20.53" height="4.11"/><rect class="cls-3" x="48.24" y="177.92" width="20.53" height="4.11"/><rect class="cls-3" x="48.24" y="188.18" width="20.53" height="4.11"/><rect class="cls-3" x="48.24" y="198.44" width="20.53" height="4.11"/><rect class="cls-3" x="48.24" y="208.71" width="20.53" height="4.11"/><rect class="cls-3" x="48.24" y="218.97" width="20.53" height="4.11"/><rect class="cls-5" x="212.44" y="200.49" width="61.58" height="92.36"/><rect class="cls-5" x="222.7" y="138.92" width="41.05" height="61.58"/><rect class="cls-5" x="232.96" y="77.34" width="20.53" height="61.58"/><rect class="cls-1" x="217.57" y="210.76" width="10.26" height="82.1"/><rect class="cls-1" x="238.09" y="210.76" width="10.26" height="82.1"/><rect class="cls-1" x="227.83" y="149.18" width="10.26" height="51.31"/><rect class="cls-1" x="248.36" y="149.18" width="10.26" height="51.31"/><rect class="cls-1" x="238.09" y="87.61" width="10.26" height="51.31"/><rect class="cls-1" x="258.62" y="210.76" width="10.26" height="82.1"/><rect class="cls-3" x="241.17" y="46.56" width="4.11" height="30.79"/><circle class="cls-4" cx="58.5" cy="36.29" r="10.26"/><path class="cls-3" d="M62,69l-.43-4.08a28.67,28.67,0,0,0,5.87-1.25l1.27,3.9A32.78,32.78,0,0,1,62,69ZM48.39,67.55a32.68,32.68,0,0,1-6.28-2.79l2.05-3.55a28.56,28.56,0,0,0,5.48,2.44Zm32.1-6.86-2.75-3a29,29,0,0,0,4-4.46l3.32,2.41A33.16,33.16,0,0,1,80.49,60.69ZM32,55.64a32.86,32.86,0,0,1-3.45-5.93L32.26,48a28.84,28.84,0,0,0,3,5.19ZM90.63,43.12l-4-.85a28.93,28.93,0,0,0,.62-6v-.13h4.11v.13A33,33,0,0,1,90.63,43.12Zm-65-6.76v-.06a33,33,0,0,1,.7-6.76l4,.84a29,29,0,0,0-.61,5.91ZM84.71,24.5a28.8,28.8,0,0,0-3-5.18L85,16.89a32.81,32.81,0,0,1,3.46,5.93Zm-49.5-5-3.33-2.41a33,33,0,0,1,4.58-5.11l2.76,3A29,29,0,0,0,35.21,19.46Zm37.58-8.11a28.66,28.66,0,0,0-5.49-2.43L68.55,5A32.68,32.68,0,0,1,74.83,7.8ZM49.54,9l-1.28-3.9A32.68,32.68,0,0,1,55,3.64l.44,4.08A28.6,28.6,0,0,0,49.54,9Z"/><path class="cls-6" d="M99.55,108.13a5.13,5.13,0,0,1-5.13,5.13H43.11A5.13,5.13,0,0,1,38,108.13h0A5.13,5.13,0,0,1,43.11,103H94.42a5.13,5.13,0,0,1,5.13,5.13Z"/><path class="cls-6" d="M253.49,26a5.13,5.13,0,0,1-5.13,5.13H225.27A5.13,5.13,0,0,1,220.14,26h0a5.13,5.13,0,0,1,5.13-5.13h23.09A5.13,5.13,0,0,1,253.49,26Z"/><path class="cls-6" d="M58.5,87.61a5.13,5.13,0,0,1-5.13,5.13H32.84a5.13,5.13,0,0,1-5.13-5.13h0a5.13,5.13,0,0,1,5.13-5.13H53.37a5.13,5.13,0,0,1,5.13,5.13Z"/><path class="cls-6" d="M272.64,108.13a5.13,5.13,0,0,1-5.13,5.13H247a5.13,5.13,0,0,1-5.13-5.13h0A5.13,5.13,0,0,1,247,103h20.53a5.13,5.13,0,0,1,5.13,5.13Z"/></g></svg>